<?xml version="1.0" encoding="us-ascii" standalone="no"?><svg xmlns="http://www.w3.org/2000/svg" xmlns:xlink="http://www.w3.org/1999/xlink" contentStyleType="text/css" height="548px" preserveAspectRatio="none" style="width:417px;height:548px;background:#FFFFFF;" version="1.1" viewBox="0 0 417 548" width="417px" zoomAndPan="magnify"><defs/><g><text fill="#888888" font-family="sans-serif" font-size="10" lengthAdjust="spacing" textLength="40" x="363" y="9.2822">Schema</text><text fill="#000000" font-family="sans-serif" font-size="14" font-weight="bold" lengthAdjust="spacing" textLength="94" x="154.5" y="35.6357">All schemas</text><!--class Publicatie--><g id="elem_Publicatie"><rect codeLine="4" fill="#F1F1F1" height="259.8594" id="Publicatie" rx="2.5" ry="2.5" style="stroke:#181818;stroke-width:0.5;" width="184" x="7" y="56.9375"/><ellipse cx="61.75" cy="72.9375" fill="#ADD1B2" rx="11" ry="11" style="stroke:#181818;stroke-width:1.0;"/><path d="M64.7188,78.5781 Q64.1406,78.875 63.5,79.0156 Q62.8594,79.1719 62.1563,79.1719 Q59.6563,79.1719 58.3281,77.5313 Q57.0156,75.875 57.0156,72.75 Q57.0156,69.625 58.3281,67.9688 Q59.6563,66.3125 62.1563,66.3125 Q62.8594,66.3125 63.5,66.4688 Q64.1563,66.625 64.7188,66.9219 L64.7188,69.6406 Q64.0938,69.0625 63.5,68.7969 Q62.9063,68.5156 62.2813,68.5156 Q60.9375,68.5156 60.25,69.5938 Q59.5625,70.6563 59.5625,72.75 Q59.5625,74.8438 60.25,75.9219 Q60.9375,76.9844 62.2813,76.9844 Q62.9063,76.9844 63.5,76.7188 Q64.0938,76.4375 64.7188,75.8594 L64.7188,78.5781 Z " fill="#000000"/><text fill="#000000" font-family="sans-serif" font-size="14" lengthAdjust="spacing" textLength="66" x="82.25" y="77.7842">Publicatie</text><line style="stroke:#181818;stroke-width:0.5;" x1="8" x2="190" y1="88.9375" y2="88.9375"/><ellipse cx="18" cy="102.5859" fill="none" rx="3" ry="3" style="stroke:#038048;stroke-width:1.0;"/><text fill="#000000" font-family="sans-serif" font-size="14" lengthAdjust="spacing" textLength="60" x="27" y="105.9326">id: string</text><ellipse cx="18" cy="118.8828" fill="none" rx="3" ry="3" style="stroke:#038048;stroke-width:1.0;"/><text fill="#000000" font-family="sans-serif" font-size="14" lengthAdjust="spacing" textLength="73" x="27" y="122.2295">titel: string</text><ellipse cx="18" cy="135.1797" fill="none" rx="3" ry="3" style="stroke:#038048;stroke-width:1.0;"/><text fill="#000000" font-family="sans-serif" font-size="14" lengthAdjust="spacing" textLength="141" x="27" y="138.5264">samenvatting: string</text><ellipse cx="18" cy="151.4766" fill="none" rx="3" ry="3" style="stroke:#038048;stroke-width:1.0;"/><text fill="#000000" font-family="sans-serif" font-size="14" lengthAdjust="spacing" textLength="130" x="27" y="154.8232">beschrijving: string</text><ellipse cx="18" cy="167.7734" fill="none" rx="3" ry="3" style="stroke:#038048;stroke-width:1.0;"/><text fill="#000000" font-family="sans-serif" font-size="14" lengthAdjust="spacing" textLength="120" x="27" y="171.1201">afbeelding: string</text><ellipse cx="18" cy="184.0703" fill="none" rx="3" ry="3" style="stroke:#038048;stroke-width:1.0;"/><text fill="#000000" font-family="sans-serif" font-size="14" lengthAdjust="spacing" textLength="113" x="27" y="187.417">categorie: string</text><ellipse cx="18" cy="200.3672" fill="none" rx="3" ry="3" style="stroke:#038048;stroke-width:1.0;"/><text fill="#000000" font-family="sans-serif" font-size="14" lengthAdjust="spacing" textLength="105" x="27" y="203.7139">portalUrl: string</text><ellipse cx="18" cy="216.6641" fill="none" rx="3" ry="3" style="stroke:#038048;stroke-width:1.0;"/><text fill="#000000" font-family="sans-serif" font-size="14" lengthAdjust="spacing" textLength="158" x="27" y="220.0107">publicatiedatum: string</text><ellipse cx="18" cy="232.9609" fill="none" rx="3" ry="3" style="stroke:#038048;stroke-width:1.0;"/><text fill="#000000" font-family="sans-serif" font-size="14" lengthAdjust="spacing" textLength="128" x="27" y="236.3076">organisatie: object</text><ellipse cx="18" cy="249.2578" fill="none" rx="3" ry="3" style="stroke:#038048;stroke-width:1.0;"/><text fill="#000000" font-family="sans-serif" font-size="14" lengthAdjust="spacing" textLength="95" x="27" y="252.6045">bijlagen: array</text><ellipse cx="18" cy="265.5547" fill="none" rx="3" ry="3" style="stroke:#038048;stroke-width:1.0;"/><text fill="#000000" font-family="sans-serif" font-size="14" lengthAdjust="spacing" textLength="117" x="27" y="268.9014">metadata: object</text><ellipse cx="18" cy="281.8516" fill="none" rx="3" ry="3" style="stroke:#038048;stroke-width:1.0;"/><text fill="#000000" font-family="sans-serif" font-size="14" lengthAdjust="spacing" textLength="127" x="27" y="285.1982">onderwerp: object</text><ellipse cx="18" cy="298.1484" fill="none" rx="3" ry="3" style="stroke:#038048;stroke-width:1.0;"/><text fill="#000000" font-family="sans-serif" font-size="14" lengthAdjust="spacing" textLength="82" x="27" y="301.4951">data: object</text><line style="stroke:#181818;stroke-width:0.5;" x1="8" x2="190" y1="308.7969" y2="308.7969"/></g><!--class MetadataWooVerzoek--><g id="elem_MetadataWooVerzoek"><rect codeLine="19" fill="#F1F1F1" height="145.7813" id="MetadataWooVerzoek" rx="2.5" ry="2.5" style="stroke:#181818;stroke-width:0.5;" width="184" x="226" y="113.9775"/><ellipse cx="241" cy="129.9775" fill="#ADD1B2" rx="11" ry="11" style="stroke:#181818;stroke-width:1.0;"/><path d="M243.9688,135.6181 Q243.3906,135.915 242.75,136.0556 Q242.1094,136.2119 241.4063,136.2119 Q238.9063,136.2119 237.5781,134.5712 Q236.2656,132.915 236.2656,129.79 Q236.2656,126.665 237.5781,125.0087 Q238.9063,123.3525 241.4063,123.3525 Q242.1094,123.3525 242.75,123.5087 Q243.4063,123.665 243.9688,123.9619 L243.9688,126.6806 Q243.3438,126.1025 242.75,125.8369 Q242.1563,125.5556 241.5313,125.5556 Q240.1875,125.5556 239.5,126.6337 Q238.8125,127.6962 238.8125,129.79 Q238.8125,131.8837 239.5,132.9619 Q240.1875,134.0244 241.5313,134.0244 Q242.1563,134.0244 242.75,133.7587 Q243.3438,133.4775 243.9688,132.8994 L243.9688,135.6181 Z " fill="#000000"/><text fill="#000000" font-family="sans-serif" font-size="14" lengthAdjust="spacing" textLength="152" x="255" y="134.8242">MetadataWooVerzoek</text><line style="stroke:#181818;stroke-width:0.5;" x1="227" x2="409" y1="145.9775" y2="145.9775"/><ellipse cx="237" cy="159.6259" fill="none" rx="3" ry="3" style="stroke:#038048;stroke-width:1.0;"/><text fill="#000000" font-family="sans-serif" font-size="14" lengthAdjust="spacing" textLength="60" x="246" y="162.9726">id: string</text><ellipse cx="237" cy="175.9228" fill="none" rx="3" ry="3" style="stroke:#038048;stroke-width:1.0;"/><text fill="#000000" font-family="sans-serif" font-size="14" lengthAdjust="spacing" textLength="73" x="246" y="179.2695">titel: string</text><ellipse cx="237" cy="192.2197" fill="none" rx="3" ry="3" style="stroke:#038048;stroke-width:1.0;"/><text fill="#000000" font-family="sans-serif" font-size="14" lengthAdjust="spacing" textLength="141" x="246" y="195.5664">samenvatting: string</text><ellipse cx="237" cy="208.5166" fill="none" rx="3" ry="3" style="stroke:#038048;stroke-width:1.0;"/><text fill="#000000" font-family="sans-serif" font-size="14" lengthAdjust="spacing" textLength="130" x="246" y="211.8632">beschrijving: string</text><ellipse cx="237" cy="224.8134" fill="none" rx="3" ry="3" style="stroke:#038048;stroke-width:1.0;"/><text fill="#000000" font-family="sans-serif" font-size="14" lengthAdjust="spacing" textLength="120" x="246" y="228.1601">afbeelding: string</text><ellipse cx="237" cy="241.1103" fill="none" rx="3" ry="3" style="stroke:#038048;stroke-width:1.0;"/><text fill="#000000" font-family="sans-serif" font-size="14" lengthAdjust="spacing" textLength="132" x="246" y="244.457">publicaties: integer</text><line style="stroke:#181818;stroke-width:0.5;" x1="227" x2="409" y1="251.7587" y2="251.7587"/></g><!--class Onderwerp--><g id="elem_Onderwerp"><rect codeLine="27" fill="#F1F1F1" height="145.7813" id="Onderwerp" rx="2.5" ry="2.5" style="stroke:#181818;stroke-width:0.5;" width="167" x="15.5" y="376.7975"/><ellipse cx="56.6" cy="392.7975" fill="#ADD1B2" rx="11" ry="11" style="stroke:#181818;stroke-width:1.0;"/><path d="M59.5688,398.4381 Q58.9906,398.735 58.35,398.8756 Q57.7094,399.0319 57.0063,399.0319 Q54.5063,399.0319 53.1781,397.3913 Q51.8656,395.735 51.8656,392.61 Q51.8656,389.485 53.1781,387.8288 Q54.5063,386.1725 57.0063,386.1725 Q57.7094,386.1725 58.35,386.3288 Q59.0063,386.485 59.5688,386.7819 L59.5688,389.5006 Q58.9438,388.9225 58.35,388.6569 Q57.7563,388.3756 57.1313,388.3756 Q55.7875,388.3756 55.1,389.4538 Q54.4125,390.5163 54.4125,392.61 Q54.4125,394.7038 55.1,395.7819 Q55.7875,396.8444 57.1313,396.8444 Q57.7563,396.8444 58.35,396.5788 Q58.9438,396.2975 59.5688,395.7194 L59.5688,398.4381 Z " fill="#000000"/><text fill="#000000" font-family="sans-serif" font-size="14" lengthAdjust="spacing" textLength="77" x="76.4" y="397.6442">Onderwerp</text><line style="stroke:#181818;stroke-width:0.5;" x1="16.5" x2="181.5" y1="408.7975" y2="408.7975"/><ellipse cx="26.5" cy="422.4459" fill="none" rx="3" ry="3" style="stroke:#038048;stroke-width:1.0;"/><text fill="#000000" font-family="sans-serif" font-size="14" lengthAdjust="spacing" textLength="60" x="35.5" y="425.7926">id: string</text><ellipse cx="26.5" cy="438.7428" fill="none" rx="3" ry="3" style="stroke:#038048;stroke-width:1.0;"/><text fill="#000000" font-family="sans-serif" font-size="14" lengthAdjust="spacing" textLength="73" x="35.5" y="442.0895">titel: string</text><ellipse cx="26.5" cy="455.0397" fill="none" rx="3" ry="3" style="stroke:#038048;stroke-width:1.0;"/><text fill="#000000" font-family="sans-serif" font-size="14" lengthAdjust="spacing" textLength="141" x="35.5" y="458.3864">samenvatting: string</text><ellipse cx="26.5" cy="471.3366" fill="none" rx="3" ry="3" style="stroke:#038048;stroke-width:1.0;"/><text fill="#000000" font-family="sans-serif" font-size="14" lengthAdjust="spacing" textLength="130" x="35.5" y="474.6832">beschrijving: string</text><ellipse cx="26.5" cy="487.6334" fill="none" rx="3" ry="3" style="stroke:#038048;stroke-width:1.0;"/><text fill="#000000" font-family="sans-serif" font-size="14" lengthAdjust="spacing" textLength="120" x="35.5" y="490.9801">afbeelding: string</text><ellipse cx="26.5" cy="503.9303" fill="none" rx="3" ry="3" style="stroke:#038048;stroke-width:1.0;"/><text fill="#000000" font-family="sans-serif" font-size="14" lengthAdjust="spacing" textLength="132" x="35.5" y="507.277">publicaties: integer</text><line style="stroke:#181818;stroke-width:0.5;" x1="16.5" x2="181.5" y1="514.5788" y2="514.5788"/></g><text fill="#888888" font-family="sans-serif" font-size="10" lengthAdjust="spacing" textLength="283" x="60" y="537.861">Common Gateway Plugin | Commongateway | Openindex</text><!--SRC=[pP1DJiD038NtEONtt61sY0Khr4e8M3k9EtMO6KSUfwNGthtJ48gc1q0i_Jt_F3zZ2-JWFWJ8tPOYvcOZOgGE7YH6IV28Hdiym3fCdXCS5-uNV8JLI8bJJn_GR0dxo-ZplAhf0kOCwwaDtA4nmLS3S0VSEyYcdFnS6Xk5YcICb7PeLa0bj5HCAW-xMm4tBL7eRt6vIbwKgQAZg65uqVheUBNPeqsnqaGz9iuNqO6q0tNsxOU7W9wI0rJ5mymY6PODM3LAoKVtf6D5gxRJ4jVJClycyahwAVJ-vx7zHf4TS2ePabxzhNvU-IUspW00]--></g></svg>