<?xml version="1.0" encoding="us-ascii" standalone="no"?><svg xmlns="http://www.w3.org/2000/svg" xmlns:xlink="http://www.w3.org/1999/xlink" contentStyleType="text/css" height="1998px" preserveAspectRatio="none" style="width:417px;height:1998px;background:#FFFFFF;" version="1.1" viewBox="0 0 417 1998" width="417px" zoomAndPan="magnify"><defs/><g><text fill="#888888" font-family="sans-serif" font-size="10" lengthAdjust="spacing" textLength="40" x="363" y="9.2822">Schema</text><text fill="#000000" font-family="sans-serif" font-size="14" font-weight="bold" lengthAdjust="spacing" textLength="94" x="154.5" y="35.6357">All schemas</text><!--class MetadataWooVerzoek--><g id="elem_MetadataWooVerzoek"><rect codeLine="156" fill="#F1F1F1" height="1710.2813" id="MetadataWooVerzoek" rx="2.5" ry="2.5" style="stroke:#181818;stroke-width:0.5;" width="184" x="7" y="56.9375"/><ellipse cx="22" cy="72.9375" fill="#ADD1B2" rx="11" ry="11" style="stroke:#181818;stroke-width:1.0;"/><path d="M24.9688,78.5781 Q24.3906,78.875 23.75,79.0156 Q23.1094,79.1719 22.4063,79.1719 Q19.9063,79.1719 18.5781,77.5313 Q17.2656,75.875 17.2656,72.75 Q17.2656,69.625 18.5781,67.9688 Q19.9063,66.3125 22.4063,66.3125 Q23.1094,66.3125 23.75,66.4688 Q24.4063,66.625 24.9688,66.9219 L24.9688,69.6406 Q24.3438,69.0625 23.75,68.7969 Q23.1563,68.5156 22.5313,68.5156 Q21.1875,68.5156 20.5,69.5938 Q19.8125,70.6563 19.8125,72.75 Q19.8125,74.8438 20.5,75.9219 Q21.1875,76.9844 22.5313,76.9844 Q23.1563,76.9844 23.75,76.7188 Q24.3438,76.4375 24.9688,75.8594 L24.9688,78.5781 Z " fill="#000000"/><text fill="#000000" font-family="sans-serif" font-size="14" lengthAdjust="spacing" textLength="152" x="36" y="77.7842">MetadataWooVerzoek</text><line style="stroke:#181818;stroke-width:0.5;" x1="8" x2="190" y1="88.9375" y2="88.9375"/><ellipse cx="18" cy="102.5859" fill="none" rx="3" ry="3" style="stroke:#038048;stroke-width:1.0;"/><text fill="#000000" font-family="sans-serif" font-size="14" lengthAdjust="spacing" textLength="60" x="27" y="105.9326">id: string</text><ellipse cx="18" cy="118.8828" fill="none" rx="3" ry="3" style="stroke:#038048;stroke-width:1.0;"/><text fill="#000000" font-family="sans-serif" font-size="14" lengthAdjust="spacing" textLength="73" x="27" y="122.2295">titel: string</text><ellipse cx="18" cy="135.1797" fill="none" rx="3" ry="3" style="stroke:#038048;stroke-width:1.0;"/><text fill="#000000" font-family="sans-serif" font-size="14" lengthAdjust="spacing" textLength="141" x="27" y="138.5264">samenvatting: string</text><ellipse cx="18" cy="151.4766" fill="none" rx="3" ry="3" style="stroke:#038048;stroke-width:1.0;"/><text fill="#000000" font-family="sans-serif" font-size="14" lengthAdjust="spacing" textLength="130" x="27" y="154.8232">beschrijving: string</text><ellipse cx="18" cy="167.7734" fill="none" rx="3" ry="3" style="stroke:#038048;stroke-width:1.0;"/><text fill="#000000" font-family="sans-serif" font-size="14" lengthAdjust="spacing" textLength="120" x="27" y="171.1201">afbeelding: string</text><ellipse cx="18" cy="184.0703" fill="none" rx="3" ry="3" style="stroke:#038048;stroke-width:1.0;"/><text fill="#000000" font-family="sans-serif" font-size="14" lengthAdjust="spacing" textLength="132" x="27" y="187.417">publicaties: integer</text><ellipse cx="18" cy="200.3672" fill="none" rx="3" ry="3" style="stroke:#038048;stroke-width:1.0;"/><text fill="#000000" font-family="sans-serif" font-size="14" lengthAdjust="spacing" textLength="60" x="27" y="203.7139">id: string</text><ellipse cx="18" cy="216.6641" fill="none" rx="3" ry="3" style="stroke:#038048;stroke-width:1.0;"/><text fill="#000000" font-family="sans-serif" font-size="14" lengthAdjust="spacing" textLength="73" x="27" y="220.0107">titel: string</text><ellipse cx="18" cy="232.9609" fill="none" rx="3" ry="3" style="stroke:#038048;stroke-width:1.0;"/><text fill="#000000" font-family="sans-serif" font-size="14" lengthAdjust="spacing" textLength="141" x="27" y="236.3076">samenvatting: string</text><ellipse cx="18" cy="249.2578" fill="none" rx="3" ry="3" style="stroke:#038048;stroke-width:1.0;"/><text fill="#000000" font-family="sans-serif" font-size="14" lengthAdjust="spacing" textLength="130" x="27" y="252.6045">beschrijving: string</text><ellipse cx="18" cy="265.5547" fill="none" rx="3" ry="3" style="stroke:#038048;stroke-width:1.0;"/><text fill="#000000" font-family="sans-serif" font-size="14" lengthAdjust="spacing" textLength="120" x="27" y="268.9014">afbeelding: string</text><ellipse cx="18" cy="281.8516" fill="none" rx="3" ry="3" style="stroke:#038048;stroke-width:1.0;"/><text fill="#000000" font-family="sans-serif" font-size="14" lengthAdjust="spacing" textLength="132" x="27" y="285.1982">publicaties: integer</text><ellipse cx="18" cy="298.1484" fill="none" rx="3" ry="3" style="stroke:#038048;stroke-width:1.0;"/><text fill="#000000" font-family="sans-serif" font-size="14" lengthAdjust="spacing" textLength="60" x="27" y="301.4951">id: string</text><ellipse cx="18" cy="314.4453" fill="none" rx="3" ry="3" style="stroke:#038048;stroke-width:1.0;"/><text fill="#000000" font-family="sans-serif" font-size="14" lengthAdjust="spacing" textLength="73" x="27" y="317.792">titel: string</text><ellipse cx="18" cy="330.7422" fill="none" rx="3" ry="3" style="stroke:#038048;stroke-width:1.0;"/><text fill="#000000" font-family="sans-serif" font-size="14" lengthAdjust="spacing" textLength="141" x="27" y="334.0889">samenvatting: string</text><ellipse cx="18" cy="347.0391" fill="none" rx="3" ry="3" style="stroke:#038048;stroke-width:1.0;"/><text fill="#000000" font-family="sans-serif" font-size="14" lengthAdjust="spacing" textLength="130" x="27" y="350.3857">beschrijving: string</text><ellipse cx="18" cy="363.3359" fill="none" rx="3" ry="3" style="stroke:#038048;stroke-width:1.0;"/><text fill="#000000" font-family="sans-serif" font-size="14" lengthAdjust="spacing" textLength="120" x="27" y="366.6826">afbeelding: string</text><ellipse cx="18" cy="379.6328" fill="none" rx="3" ry="3" style="stroke:#038048;stroke-width:1.0;"/><text fill="#000000" font-family="sans-serif" font-size="14" lengthAdjust="spacing" textLength="132" x="27" y="382.9795">publicaties: integer</text><ellipse cx="18" cy="395.9297" fill="none" rx="3" ry="3" style="stroke:#038048;stroke-width:1.0;"/><text fill="#000000" font-family="sans-serif" font-size="14" lengthAdjust="spacing" textLength="60" x="27" y="399.2764">id: string</text><ellipse cx="18" cy="412.2266" fill="none" rx="3" ry="3" style="stroke:#038048;stroke-width:1.0;"/><text fill="#000000" font-family="sans-serif" font-size="14" lengthAdjust="spacing" textLength="73" x="27" y="415.5732">titel: string</text><ellipse cx="18" cy="428.5234" fill="none" rx="3" ry="3" style="stroke:#038048;stroke-width:1.0;"/><text fill="#000000" font-family="sans-serif" font-size="14" lengthAdjust="spacing" textLength="141" x="27" y="431.8701">samenvatting: string</text><ellipse cx="18" cy="444.8203" fill="none" rx="3" ry="3" style="stroke:#038048;stroke-width:1.0;"/><text fill="#000000" font-family="sans-serif" font-size="14" lengthAdjust="spacing" textLength="130" x="27" y="448.167">beschrijving: string</text><ellipse cx="18" cy="461.1172" fill="none" rx="3" ry="3" style="stroke:#038048;stroke-width:1.0;"/><text fill="#000000" font-family="sans-serif" font-size="14" lengthAdjust="spacing" textLength="120" x="27" y="464.4639">afbeelding: string</text><ellipse cx="18" cy="477.4141" fill="none" rx="3" ry="3" style="stroke:#038048;stroke-width:1.0;"/><text fill="#000000" font-family="sans-serif" font-size="14" lengthAdjust="spacing" textLength="132" x="27" y="480.7607">publicaties: integer</text><ellipse cx="18" cy="493.7109" fill="none" rx="3" ry="3" style="stroke:#038048;stroke-width:1.0;"/><text fill="#000000" font-family="sans-serif" font-size="14" lengthAdjust="spacing" textLength="60" x="27" y="497.0576">id: string</text><ellipse cx="18" cy="510.0078" fill="none" rx="3" ry="3" style="stroke:#038048;stroke-width:1.0;"/><text fill="#000000" font-family="sans-serif" font-size="14" lengthAdjust="spacing" textLength="73" x="27" y="513.3545">titel: string</text><ellipse cx="18" cy="526.3047" fill="none" rx="3" ry="3" style="stroke:#038048;stroke-width:1.0;"/><text fill="#000000" font-family="sans-serif" font-size="14" lengthAdjust="spacing" textLength="141" x="27" y="529.6514">samenvatting: string</text><ellipse cx="18" cy="542.6016" fill="none" rx="3" ry="3" style="stroke:#038048;stroke-width:1.0;"/><text fill="#000000" font-family="sans-serif" font-size="14" lengthAdjust="spacing" textLength="130" x="27" y="545.9482">beschrijving: string</text><ellipse cx="18" cy="558.8984" fill="none" rx="3" ry="3" style="stroke:#038048;stroke-width:1.0;"/><text fill="#000000" font-family="sans-serif" font-size="14" lengthAdjust="spacing" textLength="120" x="27" y="562.2451">afbeelding: string</text><ellipse cx="18" cy="575.1953" fill="none" rx="3" ry="3" style="stroke:#038048;stroke-width:1.0;"/><text fill="#000000" font-family="sans-serif" font-size="14" lengthAdjust="spacing" textLength="132" x="27" y="578.542">publicaties: integer</text><ellipse cx="18" cy="591.4922" fill="none" rx="3" ry="3" style="stroke:#038048;stroke-width:1.0;"/><text fill="#000000" font-family="sans-serif" font-size="14" lengthAdjust="spacing" textLength="60" x="27" y="594.8389">id: string</text><ellipse cx="18" cy="607.7891" fill="none" rx="3" ry="3" style="stroke:#038048;stroke-width:1.0;"/><text fill="#000000" font-family="sans-serif" font-size="14" lengthAdjust="spacing" textLength="73" x="27" y="611.1357">titel: string</text><ellipse cx="18" cy="624.0859" fill="none" rx="3" ry="3" style="stroke:#038048;stroke-width:1.0;"/><text fill="#000000" font-family="sans-serif" font-size="14" lengthAdjust="spacing" textLength="141" x="27" y="627.4326">samenvatting: string</text><ellipse cx="18" cy="640.3828" fill="none" rx="3" ry="3" style="stroke:#038048;stroke-width:1.0;"/><text fill="#000000" font-family="sans-serif" font-size="14" lengthAdjust="spacing" textLength="130" x="27" y="643.7295">beschrijving: string</text><ellipse cx="18" cy="656.6797" fill="none" rx="3" ry="3" style="stroke:#038048;stroke-width:1.0;"/><text fill="#000000" font-family="sans-serif" font-size="14" lengthAdjust="spacing" textLength="120" x="27" y="660.0264">afbeelding: string</text><ellipse cx="18" cy="672.9766" fill="none" rx="3" ry="3" style="stroke:#038048;stroke-width:1.0;"/><text fill="#000000" font-family="sans-serif" font-size="14" lengthAdjust="spacing" textLength="132" x="27" y="676.3232">publicaties: integer</text><ellipse cx="18" cy="689.2734" fill="none" rx="3" ry="3" style="stroke:#038048;stroke-width:1.0;"/><text fill="#000000" font-family="sans-serif" font-size="14" lengthAdjust="spacing" textLength="60" x="27" y="692.6201">id: string</text><ellipse cx="18" cy="705.5703" fill="none" rx="3" ry="3" style="stroke:#038048;stroke-width:1.0;"/><text fill="#000000" font-family="sans-serif" font-size="14" lengthAdjust="spacing" textLength="73" x="27" y="708.917">titel: string</text><ellipse cx="18" cy="721.8672" fill="none" rx="3" ry="3" style="stroke:#038048;stroke-width:1.0;"/><text fill="#000000" font-family="sans-serif" font-size="14" lengthAdjust="spacing" textLength="141" x="27" y="725.2139">samenvatting: string</text><ellipse cx="18" cy="738.1641" fill="none" rx="3" ry="3" style="stroke:#038048;stroke-width:1.0;"/><text fill="#000000" font-family="sans-serif" font-size="14" lengthAdjust="spacing" textLength="130" x="27" y="741.5107">beschrijving: string</text><ellipse cx="18" cy="754.4609" fill="none" rx="3" ry="3" style="stroke:#038048;stroke-width:1.0;"/><text fill="#000000" font-family="sans-serif" font-size="14" lengthAdjust="spacing" textLength="120" x="27" y="757.8076">afbeelding: string</text><ellipse cx="18" cy="770.7578" fill="none" rx="3" ry="3" style="stroke:#038048;stroke-width:1.0;"/><text fill="#000000" font-family="sans-serif" font-size="14" lengthAdjust="spacing" textLength="132" x="27" y="774.1045">publicaties: integer</text><ellipse cx="18" cy="787.0547" fill="none" rx="3" ry="3" style="stroke:#038048;stroke-width:1.0;"/><text fill="#000000" font-family="sans-serif" font-size="14" lengthAdjust="spacing" textLength="60" x="27" y="790.4014">id: string</text><ellipse cx="18" cy="803.3516" fill="none" rx="3" ry="3" style="stroke:#038048;stroke-width:1.0;"/><text fill="#000000" font-family="sans-serif" font-size="14" lengthAdjust="spacing" textLength="73" x="27" y="806.6982">titel: string</text><ellipse cx="18" cy="819.6484" fill="none" rx="3" ry="3" style="stroke:#038048;stroke-width:1.0;"/><text fill="#000000" font-family="sans-serif" font-size="14" lengthAdjust="spacing" textLength="141" x="27" y="822.9951">samenvatting: string</text><ellipse cx="18" cy="835.9453" fill="none" rx="3" ry="3" style="stroke:#038048;stroke-width:1.0;"/><text fill="#000000" font-family="sans-serif" font-size="14" lengthAdjust="spacing" textLength="130" x="27" y="839.292">beschrijving: string</text><ellipse cx="18" cy="852.2422" fill="none" rx="3" ry="3" style="stroke:#038048;stroke-width:1.0;"/><text fill="#000000" font-family="sans-serif" font-size="14" lengthAdjust="spacing" textLength="120" x="27" y="855.5889">afbeelding: string</text><ellipse cx="18" cy="868.5391" fill="none" rx="3" ry="3" style="stroke:#038048;stroke-width:1.0;"/><text fill="#000000" font-family="sans-serif" font-size="14" lengthAdjust="spacing" textLength="132" x="27" y="871.8857">publicaties: integer</text><ellipse cx="18" cy="884.8359" fill="none" rx="3" ry="3" style="stroke:#038048;stroke-width:1.0;"/><text fill="#000000" font-family="sans-serif" font-size="14" lengthAdjust="spacing" textLength="60" x="27" y="888.1826">id: string</text><ellipse cx="18" cy="901.1328" fill="none" rx="3" ry="3" style="stroke:#038048;stroke-width:1.0;"/><text fill="#000000" font-family="sans-serif" font-size="14" lengthAdjust="spacing" textLength="73" x="27" y="904.4795">titel: string</text><ellipse cx="18" cy="917.4297" fill="none" rx="3" ry="3" style="stroke:#038048;stroke-width:1.0;"/><text fill="#000000" font-family="sans-serif" font-size="14" lengthAdjust="spacing" textLength="141" x="27" y="920.7764">samenvatting: string</text><ellipse cx="18" cy="933.7266" fill="none" rx="3" ry="3" style="stroke:#038048;stroke-width:1.0;"/><text fill="#000000" font-family="sans-serif" font-size="14" lengthAdjust="spacing" textLength="130" x="27" y="937.0732">beschrijving: string</text><ellipse cx="18" cy="950.0234" fill="none" rx="3" ry="3" style="stroke:#038048;stroke-width:1.0;"/><text fill="#000000" font-family="sans-serif" font-size="14" lengthAdjust="spacing" textLength="120" x="27" y="953.3701">afbeelding: string</text><ellipse cx="18" cy="966.3203" fill="none" rx="3" ry="3" style="stroke:#038048;stroke-width:1.0;"/><text fill="#000000" font-family="sans-serif" font-size="14" lengthAdjust="spacing" textLength="132" x="27" y="969.667">publicaties: integer</text><ellipse cx="18" cy="982.6172" fill="none" rx="3" ry="3" style="stroke:#038048;stroke-width:1.0;"/><text fill="#000000" font-family="sans-serif" font-size="14" lengthAdjust="spacing" textLength="60" x="27" y="985.9639">id: string</text><ellipse cx="18" cy="998.9141" fill="none" rx="3" ry="3" style="stroke:#038048;stroke-width:1.0;"/><text fill="#000000" font-family="sans-serif" font-size="14" lengthAdjust="spacing" textLength="73" x="27" y="1002.2607">titel: string</text><ellipse cx="18" cy="1015.2109" fill="none" rx="3" ry="3" style="stroke:#038048;stroke-width:1.0;"/><text fill="#000000" font-family="sans-serif" font-size="14" lengthAdjust="spacing" textLength="141" x="27" y="1018.5576">samenvatting: string</text><ellipse cx="18" cy="1031.5078" fill="none" rx="3" ry="3" style="stroke:#038048;stroke-width:1.0;"/><text fill="#000000" font-family="sans-serif" font-size="14" lengthAdjust="spacing" textLength="130" x="27" y="1034.8545">beschrijving: string</text><ellipse cx="18" cy="1047.8047" fill="none" rx="3" ry="3" style="stroke:#038048;stroke-width:1.0;"/><text fill="#000000" font-family="sans-serif" font-size="14" lengthAdjust="spacing" textLength="120" x="27" y="1051.1514">afbeelding: string</text><ellipse cx="18" cy="1064.1016" fill="none" rx="3" ry="3" style="stroke:#038048;stroke-width:1.0;"/><text fill="#000000" font-family="sans-serif" font-size="14" lengthAdjust="spacing" textLength="132" x="27" y="1067.4482">publicaties: integer</text><ellipse cx="18" cy="1080.3984" fill="none" rx="3" ry="3" style="stroke:#038048;stroke-width:1.0;"/><text fill="#000000" font-family="sans-serif" font-size="14" lengthAdjust="spacing" textLength="60" x="27" y="1083.7451">id: string</text><ellipse cx="18" cy="1096.6953" fill="none" rx="3" ry="3" style="stroke:#038048;stroke-width:1.0;"/><text fill="#000000" font-family="sans-serif" font-size="14" lengthAdjust="spacing" textLength="73" x="27" y="1100.042">titel: string</text><ellipse cx="18" cy="1112.9922" fill="none" rx="3" ry="3" style="stroke:#038048;stroke-width:1.0;"/><text fill="#000000" font-family="sans-serif" font-size="14" lengthAdjust="spacing" textLength="141" x="27" y="1116.3389">samenvatting: string</text><ellipse cx="18" cy="1129.2891" fill="none" rx="3" ry="3" style="stroke:#038048;stroke-width:1.0;"/><text fill="#000000" font-family="sans-serif" font-size="14" lengthAdjust="spacing" textLength="130" x="27" y="1132.6357">beschrijving: string</text><ellipse cx="18" cy="1145.5859" fill="none" rx="3" ry="3" style="stroke:#038048;stroke-width:1.0;"/><text fill="#000000" font-family="sans-serif" font-size="14" lengthAdjust="spacing" textLength="120" x="27" y="1148.9326">afbeelding: string</text><ellipse cx="18" cy="1161.8828" fill="none" rx="3" ry="3" style="stroke:#038048;stroke-width:1.0;"/><text fill="#000000" font-family="sans-serif" font-size="14" lengthAdjust="spacing" textLength="132" x="27" y="1165.2295">publicaties: integer</text><ellipse cx="18" cy="1178.1797" fill="none" rx="3" ry="3" style="stroke:#038048;stroke-width:1.0;"/><text fill="#000000" font-family="sans-serif" font-size="14" lengthAdjust="spacing" textLength="60" x="27" y="1181.5264">id: string</text><ellipse cx="18" cy="1194.4766" fill="none" rx="3" ry="3" style="stroke:#038048;stroke-width:1.0;"/><text fill="#000000" font-family="sans-serif" font-size="14" lengthAdjust="spacing" textLength="73" x="27" y="1197.8232">titel: string</text><ellipse cx="18" cy="1210.7734" fill="none" rx="3" ry="3" style="stroke:#038048;stroke-width:1.0;"/><text fill="#000000" font-family="sans-serif" font-size="14" lengthAdjust="spacing" textLength="141" x="27" y="1214.1201">samenvatting: string</text><ellipse cx="18" cy="1227.0703" fill="none" rx="3" ry="3" style="stroke:#038048;stroke-width:1.0;"/><text fill="#000000" font-family="sans-serif" font-size="14" lengthAdjust="spacing" textLength="130" x="27" y="1230.417">beschrijving: string</text><ellipse cx="18" cy="1243.3672" fill="none" rx="3" ry="3" style="stroke:#038048;stroke-width:1.0;"/><text fill="#000000" font-family="sans-serif" font-size="14" lengthAdjust="spacing" textLength="120" x="27" y="1246.7139">afbeelding: string</text><ellipse cx="18" cy="1259.6641" fill="none" rx="3" ry="3" style="stroke:#038048;stroke-width:1.0;"/><text fill="#000000" font-family="sans-serif" font-size="14" lengthAdjust="spacing" textLength="132" x="27" y="1263.0107">publicaties: integer</text><ellipse cx="18" cy="1275.9609" fill="none" rx="3" ry="3" style="stroke:#038048;stroke-width:1.0;"/><text fill="#000000" font-family="sans-serif" font-size="14" lengthAdjust="spacing" textLength="60" x="27" y="1279.3076">id: string</text><ellipse cx="18" cy="1292.2578" fill="none" rx="3" ry="3" style="stroke:#038048;stroke-width:1.0;"/><text fill="#000000" font-family="sans-serif" font-size="14" lengthAdjust="spacing" textLength="73" x="27" y="1295.6045">titel: string</text><ellipse cx="18" cy="1308.5547" fill="none" rx="3" ry="3" style="stroke:#038048;stroke-width:1.0;"/><text fill="#000000" font-family="sans-serif" font-size="14" lengthAdjust="spacing" textLength="141" x="27" y="1311.9014">samenvatting: string</text><ellipse cx="18" cy="1324.8516" fill="none" rx="3" ry="3" style="stroke:#038048;stroke-width:1.0;"/><text fill="#000000" font-family="sans-serif" font-size="14" lengthAdjust="spacing" textLength="130" x="27" y="1328.1982">beschrijving: string</text><ellipse cx="18" cy="1341.1484" fill="none" rx="3" ry="3" style="stroke:#038048;stroke-width:1.0;"/><text fill="#000000" font-family="sans-serif" font-size="14" lengthAdjust="spacing" textLength="120" x="27" y="1344.4951">afbeelding: string</text><ellipse cx="18" cy="1357.4453" fill="none" rx="3" ry="3" style="stroke:#038048;stroke-width:1.0;"/><text fill="#000000" font-family="sans-serif" font-size="14" lengthAdjust="spacing" textLength="132" x="27" y="1360.792">publicaties: integer</text><ellipse cx="18" cy="1373.7422" fill="none" rx="3" ry="3" style="stroke:#038048;stroke-width:1.0;"/><text fill="#000000" font-family="sans-serif" font-size="14" lengthAdjust="spacing" textLength="60" x="27" y="1377.0889">id: string</text><ellipse cx="18" cy="1390.0391" fill="none" rx="3" ry="3" style="stroke:#038048;stroke-width:1.0;"/><text fill="#000000" font-family="sans-serif" font-size="14" lengthAdjust="spacing" textLength="73" x="27" y="1393.3857">titel: string</text><ellipse cx="18" cy="1406.3359" fill="none" rx="3" ry="3" style="stroke:#038048;stroke-width:1.0;"/><text fill="#000000" font-family="sans-serif" font-size="14" lengthAdjust="spacing" textLength="141" x="27" y="1409.6826">samenvatting: string</text><ellipse cx="18" cy="1422.6328" fill="none" rx="3" ry="3" style="stroke:#038048;stroke-width:1.0;"/><text fill="#000000" font-family="sans-serif" font-size="14" lengthAdjust="spacing" textLength="130" x="27" y="1425.9795">beschrijving: string</text><ellipse cx="18" cy="1438.9297" fill="none" rx="3" ry="3" style="stroke:#038048;stroke-width:1.0;"/><text fill="#000000" font-family="sans-serif" font-size="14" lengthAdjust="spacing" textLength="120" x="27" y="1442.2764">afbeelding: string</text><ellipse cx="18" cy="1455.2266" fill="none" rx="3" ry="3" style="stroke:#038048;stroke-width:1.0;"/><text fill="#000000" font-family="sans-serif" font-size="14" lengthAdjust="spacing" textLength="132" x="27" y="1458.5732">publicaties: integer</text><ellipse cx="18" cy="1471.5234" fill="none" rx="3" ry="3" style="stroke:#038048;stroke-width:1.0;"/><text fill="#000000" font-family="sans-serif" font-size="14" lengthAdjust="spacing" textLength="60" x="27" y="1474.8701">id: string</text><ellipse cx="18" cy="1487.8203" fill="none" rx="3" ry="3" style="stroke:#038048;stroke-width:1.0;"/><text fill="#000000" font-family="sans-serif" font-size="14" lengthAdjust="spacing" textLength="73" x="27" y="1491.167">titel: string</text><ellipse cx="18" cy="1504.1172" fill="none" rx="3" ry="3" style="stroke:#038048;stroke-width:1.0;"/><text fill="#000000" font-family="sans-serif" font-size="14" lengthAdjust="spacing" textLength="141" x="27" y="1507.4639">samenvatting: string</text><ellipse cx="18" cy="1520.4141" fill="none" rx="3" ry="3" style="stroke:#038048;stroke-width:1.0;"/><text fill="#000000" font-family="sans-serif" font-size="14" lengthAdjust="spacing" textLength="130" x="27" y="1523.7607">beschrijving: string</text><ellipse cx="18" cy="1536.7109" fill="none" rx="3" ry="3" style="stroke:#038048;stroke-width:1.0;"/><text fill="#000000" font-family="sans-serif" font-size="14" lengthAdjust="spacing" textLength="120" x="27" y="1540.0576">afbeelding: string</text><ellipse cx="18" cy="1553.0078" fill="none" rx="3" ry="3" style="stroke:#038048;stroke-width:1.0;"/><text fill="#000000" font-family="sans-serif" font-size="14" lengthAdjust="spacing" textLength="132" x="27" y="1556.3545">publicaties: integer</text><ellipse cx="18" cy="1569.3047" fill="none" rx="3" ry="3" style="stroke:#038048;stroke-width:1.0;"/><text fill="#000000" font-family="sans-serif" font-size="14" lengthAdjust="spacing" textLength="60" x="27" y="1572.6514">id: string</text><ellipse cx="18" cy="1585.6016" fill="none" rx="3" ry="3" style="stroke:#038048;stroke-width:1.0;"/><text fill="#000000" font-family="sans-serif" font-size="14" lengthAdjust="spacing" textLength="73" x="27" y="1588.9482">titel: string</text><ellipse cx="18" cy="1601.8984" fill="none" rx="3" ry="3" style="stroke:#038048;stroke-width:1.0;"/><text fill="#000000" font-family="sans-serif" font-size="14" lengthAdjust="spacing" textLength="141" x="27" y="1605.2451">samenvatting: string</text><ellipse cx="18" cy="1618.1953" fill="none" rx="3" ry="3" style="stroke:#038048;stroke-width:1.0;"/><text fill="#000000" font-family="sans-serif" font-size="14" lengthAdjust="spacing" textLength="130" x="27" y="1621.542">beschrijving: string</text><ellipse cx="18" cy="1634.4922" fill="none" rx="3" ry="3" style="stroke:#038048;stroke-width:1.0;"/><text fill="#000000" font-family="sans-serif" font-size="14" lengthAdjust="spacing" textLength="120" x="27" y="1637.8389">afbeelding: string</text><ellipse cx="18" cy="1650.7891" fill="none" rx="3" ry="3" style="stroke:#038048;stroke-width:1.0;"/><text fill="#000000" font-family="sans-serif" font-size="14" lengthAdjust="spacing" textLength="132" x="27" y="1654.1357">publicaties: integer</text><ellipse cx="18" cy="1667.0859" fill="none" rx="3" ry="3" style="stroke:#038048;stroke-width:1.0;"/><text fill="#000000" font-family="sans-serif" font-size="14" lengthAdjust="spacing" textLength="60" x="27" y="1670.4326">id: string</text><ellipse cx="18" cy="1683.3828" fill="none" rx="3" ry="3" style="stroke:#038048;stroke-width:1.0;"/><text fill="#000000" font-family="sans-serif" font-size="14" lengthAdjust="spacing" textLength="73" x="27" y="1686.7295">titel: string</text><ellipse cx="18" cy="1699.6797" fill="none" rx="3" ry="3" style="stroke:#038048;stroke-width:1.0;"/><text fill="#000000" font-family="sans-serif" font-size="14" lengthAdjust="spacing" textLength="141" x="27" y="1703.0264">samenvatting: string</text><ellipse cx="18" cy="1715.9766" fill="none" rx="3" ry="3" style="stroke:#038048;stroke-width:1.0;"/><text fill="#000000" font-family="sans-serif" font-size="14" lengthAdjust="spacing" textLength="130" x="27" y="1719.3232">beschrijving: string</text><ellipse cx="18" cy="1732.2734" fill="none" rx="3" ry="3" style="stroke:#038048;stroke-width:1.0;"/><text fill="#000000" font-family="sans-serif" font-size="14" lengthAdjust="spacing" textLength="120" x="27" y="1735.6201">afbeelding: string</text><ellipse cx="18" cy="1748.5703" fill="none" rx="3" ry="3" style="stroke:#038048;stroke-width:1.0;"/><text fill="#000000" font-family="sans-serif" font-size="14" lengthAdjust="spacing" textLength="132" x="27" y="1751.917">publicaties: integer</text><line style="stroke:#181818;stroke-width:0.5;" x1="8" x2="190" y1="1759.2188" y2="1759.2188"/></g><!--class Publicatie--><g id="elem_Publicatie"><rect codeLine="36" fill="#F1F1F1" height="276.1563" id="Publicatie" rx="2.5" ry="2.5" style="stroke:#181818;stroke-width:0.5;" width="184" x="226" y="773.9975"/><ellipse cx="280.75" cy="789.9975" fill="#ADD1B2" rx="11" ry="11" style="stroke:#181818;stroke-width:1.0;"/><path d="M283.7188,795.6381 Q283.1406,795.935 282.5,796.0756 Q281.8594,796.2319 281.1563,796.2319 Q278.6563,796.2319 277.3281,794.5913 Q276.0156,792.935 276.0156,789.81 Q276.0156,786.685 277.3281,785.0288 Q278.6563,783.3725 281.1563,783.3725 Q281.8594,783.3725 282.5,783.5288 Q283.1563,783.685 283.7188,783.9819 L283.7188,786.7006 Q283.0938,786.1225 282.5,785.8569 Q281.9063,785.5756 281.2813,785.5756 Q279.9375,785.5756 279.25,786.6538 Q278.5625,787.7163 278.5625,789.81 Q278.5625,791.9038 279.25,792.9819 Q279.9375,794.0444 281.2813,794.0444 Q281.9063,794.0444 282.5,793.7788 Q283.0938,793.4975 283.7188,792.9194 L283.7188,795.6381 Z " fill="#000000"/><text fill="#000000" font-family="sans-serif" font-size="14" lengthAdjust="spacing" textLength="66" x="301.25" y="794.8442">Publicatie</text><line style="stroke:#181818;stroke-width:0.5;" x1="227" x2="409" y1="805.9975" y2="805.9975"/><ellipse cx="237" cy="819.6459" fill="none" rx="3" ry="3" style="stroke:#038048;stroke-width:1.0;"/><text fill="#000000" font-family="sans-serif" font-size="14" lengthAdjust="spacing" textLength="60" x="246" y="822.9926">id: string</text><ellipse cx="237" cy="835.9428" fill="none" rx="3" ry="3" style="stroke:#038048;stroke-width:1.0;"/><text fill="#000000" font-family="sans-serif" font-size="14" lengthAdjust="spacing" textLength="73" x="246" y="839.2895">titel: string</text><ellipse cx="237" cy="852.2397" fill="none" rx="3" ry="3" style="stroke:#038048;stroke-width:1.0;"/><text fill="#000000" font-family="sans-serif" font-size="14" lengthAdjust="spacing" textLength="141" x="246" y="855.5864">samenvatting: string</text><ellipse cx="237" cy="868.5366" fill="none" rx="3" ry="3" style="stroke:#038048;stroke-width:1.0;"/><text fill="#000000" font-family="sans-serif" font-size="14" lengthAdjust="spacing" textLength="130" x="246" y="871.8832">beschrijving: string</text><ellipse cx="237" cy="884.8334" fill="none" rx="3" ry="3" style="stroke:#038048;stroke-width:1.0;"/><text fill="#000000" font-family="sans-serif" font-size="14" lengthAdjust="spacing" textLength="120" x="246" y="888.1801">afbeelding: string</text><ellipse cx="237" cy="901.1303" fill="none" rx="3" ry="3" style="stroke:#038048;stroke-width:1.0;"/><text fill="#000000" font-family="sans-serif" font-size="14" lengthAdjust="spacing" textLength="113" x="246" y="904.477">categorie: string</text><ellipse cx="237" cy="917.4272" fill="none" rx="3" ry="3" style="stroke:#038048;stroke-width:1.0;"/><text fill="#000000" font-family="sans-serif" font-size="14" lengthAdjust="spacing" textLength="105" x="246" y="920.7739">portalUrl: string</text><ellipse cx="237" cy="933.7241" fill="none" rx="3" ry="3" style="stroke:#038048;stroke-width:1.0;"/><text fill="#000000" font-family="sans-serif" font-size="14" lengthAdjust="spacing" textLength="158" x="246" y="937.0707">publicatiedatum: string</text><ellipse cx="237" cy="950.0209" fill="none" rx="3" ry="3" style="stroke:#038048;stroke-width:1.0;"/><text fill="#000000" font-family="sans-serif" font-size="14" lengthAdjust="spacing" textLength="123" x="246" y="953.3676">featured: boolean</text><ellipse cx="237" cy="966.3178" fill="none" rx="3" ry="3" style="stroke:#038048;stroke-width:1.0;"/><text fill="#000000" font-family="sans-serif" font-size="14" lengthAdjust="spacing" textLength="128" x="246" y="969.6645">organisatie: object</text><ellipse cx="237" cy="982.6147" fill="none" rx="3" ry="3" style="stroke:#038048;stroke-width:1.0;"/><text fill="#000000" font-family="sans-serif" font-size="14" lengthAdjust="spacing" textLength="95" x="246" y="985.9614">bijlagen: array</text><ellipse cx="237" cy="998.9116" fill="none" rx="3" ry="3" style="stroke:#038048;stroke-width:1.0;"/><text fill="#000000" font-family="sans-serif" font-size="14" lengthAdjust="spacing" textLength="117" x="246" y="1002.2582">metadata: object</text><ellipse cx="237" cy="1015.2084" fill="none" rx="3" ry="3" style="stroke:#038048;stroke-width:1.0;"/><text fill="#000000" font-family="sans-serif" font-size="14" lengthAdjust="spacing" textLength="127" x="246" y="1018.5551">onderwerp: object</text><ellipse cx="237" cy="1031.5053" fill="none" rx="3" ry="3" style="stroke:#038048;stroke-width:1.0;"/><text fill="#000000" font-family="sans-serif" font-size="14" lengthAdjust="spacing" textLength="82" x="246" y="1034.852">data: object</text><line style="stroke:#181818;stroke-width:0.5;" x1="227" x2="409" y1="1042.1538" y2="1042.1538"/></g><!--class Onderwerp--><g id="elem_Onderwerp"><rect codeLine="92" fill="#F1F1F1" height="145.7813" id="Onderwerp" rx="2.5" ry="2.5" style="stroke:#181818;stroke-width:0.5;" width="167" x="15.5" y="1827.2175"/><ellipse cx="56.6" cy="1843.2175" fill="#ADD1B2" rx="11" ry="11" style="stroke:#181818;stroke-width:1.0;"/><path d="M59.5688,1848.8581 Q58.9906,1849.155 58.35,1849.2956 Q57.7094,1849.4519 57.0063,1849.4519 Q54.5063,1849.4519 53.1781,1847.8113 Q51.8656,1846.155 51.8656,1843.03 Q51.8656,1839.905 53.1781,1838.2488 Q54.5063,1836.5925 57.0063,1836.5925 Q57.7094,1836.5925 58.35,1836.7488 Q59.0063,1836.905 59.5688,1837.2019 L59.5688,1839.9206 Q58.9438,1839.3425 58.35,1839.0769 Q57.7563,1838.7956 57.1313,1838.7956 Q55.7875,1838.7956 55.1,1839.8738 Q54.4125,1840.9363 54.4125,1843.03 Q54.4125,1845.1238 55.1,1846.2019 Q55.7875,1847.2644 57.1313,1847.2644 Q57.7563,1847.2644 58.35,1846.9988 Q58.9438,1846.7175 59.5688,1846.1394 L59.5688,1848.8581 Z " fill="#000000"/><text fill="#000000" font-family="sans-serif" font-size="14" lengthAdjust="spacing" textLength="77" x="76.4" y="1848.0642">Onderwerp</text><line style="stroke:#181818;stroke-width:0.5;" x1="16.5" x2="181.5" y1="1859.2175" y2="1859.2175"/><ellipse cx="26.5" cy="1872.8659" fill="none" rx="3" ry="3" style="stroke:#038048;stroke-width:1.0;"/><text fill="#000000" font-family="sans-serif" font-size="14" lengthAdjust="spacing" textLength="60" x="35.5" y="1876.2126">id: string</text><ellipse cx="26.5" cy="1889.1628" fill="none" rx="3" ry="3" style="stroke:#038048;stroke-width:1.0;"/><text fill="#000000" font-family="sans-serif" font-size="14" lengthAdjust="spacing" textLength="73" x="35.5" y="1892.5095">titel: string</text><ellipse cx="26.5" cy="1905.4597" fill="none" rx="3" ry="3" style="stroke:#038048;stroke-width:1.0;"/><text fill="#000000" font-family="sans-serif" font-size="14" lengthAdjust="spacing" textLength="141" x="35.5" y="1908.8064">samenvatting: string</text><ellipse cx="26.5" cy="1921.7566" fill="none" rx="3" ry="3" style="stroke:#038048;stroke-width:1.0;"/><text fill="#000000" font-family="sans-serif" font-size="14" lengthAdjust="spacing" textLength="130" x="35.5" y="1925.1032">beschrijving: string</text><ellipse cx="26.5" cy="1938.0534" fill="none" rx="3" ry="3" style="stroke:#038048;stroke-width:1.0;"/><text fill="#000000" font-family="sans-serif" font-size="14" lengthAdjust="spacing" textLength="120" x="35.5" y="1941.4001">afbeelding: string</text><ellipse cx="26.5" cy="1954.3503" fill="none" rx="3" ry="3" style="stroke:#038048;stroke-width:1.0;"/><text fill="#000000" font-family="sans-serif" font-size="14" lengthAdjust="spacing" textLength="132" x="35.5" y="1957.697">publicaties: integer</text><line style="stroke:#181818;stroke-width:0.5;" x1="16.5" x2="181.5" y1="1964.9988" y2="1964.9988"/></g><text fill="#888888" font-family="sans-serif" font-size="10" lengthAdjust="spacing" textLength="283" x="60" y="1988.281">Common Gateway Plugin | Commongateway | Openindex</text><!--SRC=[xPEnJWCn38RtUmhllC5jY86fQYK4pBwxlsbABguSjwLGtftqA4YfXDXW86C-syaN9pPl0IrTXq2fNs7ar2n53DhIZOoZHBfbmvuFj0XRvoCTpzoTyP7c6qGV1pnJim8FfzAxQQkc3vmIpM0yiF6Zo0FqHV14hmtH5VcXfMJgevkMvWsX88b7n1sRPL04EcHPzUlTPO2N7H26IxpPTi7tR1wf9HyD3jgyLRz_uRVu2lwwLpuLJjIZj1Kr3lSQlhb3RkPsB69BPAJ8tfr80CU9YZgEFfrAMf9kZTu-BFqwi4DiYLNvCB7n_4X5ekIfrJrqKz0YhNx2wbVzVlQRVuvIRLlrgtxLh_hzgTyx]--></g></svg>