<svg xmlns="http://www.w3.org/2000/svg" xmlns:xlink="http://www.w3.org/1999/xlink" contentStyleType="text/css" height="245px" preserveAspectRatio="none" style="width:487px;height:245px;background:#FFFFFF;" version="1.1" viewBox="0 0 487 245" width="487px" zoomAndPan="magnify"><defs/><g><text fill="#888888" font-family="sans-serif" font-size="10" lengthAdjust="spacing" textLength="40" x="439" y="9.2822">Schema</text><text fill="#000000" font-family="sans-serif" font-size="14" font-weight="bold" lengthAdjust="spacing" textLength="459" x="10" y="35.6357">MetadataTOOIagenda&#8217;senbesluitenlijstenbestuurscolleges</text><!--class MetadataTOOIagenda?senbesluitenlijstenbestuurscolleges--><g id="elem_MetadataTOOIagenda&#8217;senbesluitenlijstenbestuurscolleges"><rect codeLine="5" fill="#F1F1F1" height="162.0781" id="MetadataTOOIagenda&#8217;senbesluitenlijstenbestuurscolleges" rx="2.5" ry="2.5" style="stroke:#181818;stroke-width:0.5;" width="436" x="22" y="56.9375"/><ellipse cx="37" cy="72.9375" fill="#ADD1B2" rx="11" ry="11" style="stroke:#181818;stroke-width:1.0;"/><path d="M39.9688,78.5781 Q39.3906,78.875 38.75,79.0156 Q38.1094,79.1719 37.4063,79.1719 Q34.9063,79.1719 33.5781,77.5313 Q32.2656,75.875 32.2656,72.75 Q32.2656,69.625 33.5781,67.9688 Q34.9063,66.3125 37.4063,66.3125 Q38.1094,66.3125 38.75,66.4688 Q39.4063,66.625 39.9688,66.9219 L39.9688,69.6406 Q39.3438,69.0625 38.75,68.7969 Q38.1563,68.5156 37.5313,68.5156 Q36.1875,68.5156 35.5,69.5938 Q34.8125,70.6563 34.8125,72.75 Q34.8125,74.8438 35.5,75.9219 Q36.1875,76.9844 37.5313,76.9844 Q38.1563,76.9844 38.75,76.7188 Q39.3438,76.4375 39.9688,75.8594 L39.9688,78.5781 Z " fill="#000000"/><text fill="#000000" font-family="sans-serif" font-size="14" lengthAdjust="spacing" textLength="404" x="51" y="77.7842">MetadataTOOIagenda&#8217;senbesluitenlijstenbestuurscolleges</text><line style="stroke:#181818;stroke-width:0.5;" x1="23" x2="457" y1="88.9375" y2="88.9375"/><ellipse cx="33" cy="102.5859" fill="none" rx="3" ry="3" style="stroke:#038048;stroke-width:1.0;"/><text fill="#000000" font-family="sans-serif" font-size="14" lengthAdjust="spacing" textLength="180" x="42" y="105.9326">tooiCategorieNaam: string</text><ellipse cx="33" cy="118.8828" fill="none" rx="3" ry="3" style="stroke:#038048;stroke-width:1.0;"/><text fill="#000000" font-family="sans-serif" font-size="14" lengthAdjust="spacing" textLength="153" x="42" y="122.2295">tooiCategorieId: string</text><ellipse cx="33" cy="135.1797" fill="none" rx="3" ry="3" style="stroke:#038048;stroke-width:1.0;"/><text fill="#000000" font-family="sans-serif" font-size="14" lengthAdjust="spacing" textLength="159" x="42" y="138.5264">tooiCategorieUri: string</text><ellipse cx="33" cy="151.4766" fill="none" rx="3" ry="3" style="stroke:#038048;stroke-width:1.0;"/><text fill="#000000" font-family="sans-serif" font-size="14" lengthAdjust="spacing" textLength="161" x="42" y="154.8232">tooiThemaNaam: string</text><ellipse cx="33" cy="167.7734" fill="none" rx="3" ry="3" style="stroke:#038048;stroke-width:1.0;"/><text fill="#000000" font-family="sans-serif" font-size="14" lengthAdjust="spacing" textLength="134" x="42" y="171.1201">tooiThemaId: string</text><ellipse cx="33" cy="184.0703" fill="none" rx="3" ry="3" style="stroke:#038048;stroke-width:1.0;"/><text fill="#000000" font-family="sans-serif" font-size="14" lengthAdjust="spacing" textLength="140" x="42" y="187.417">tooiThemaUri: string</text><ellipse cx="33" cy="200.3672" fill="none" rx="3" ry="3" style="stroke:#038048;stroke-width:1.0;"/><text fill="#000000" font-family="sans-serif" font-size="14" lengthAdjust="spacing" textLength="86" x="42" y="203.7139">values: array</text><line style="stroke:#181818;stroke-width:0.5;" x1="23" x2="457" y1="211.0156" y2="211.0156"/></g><text fill="#888888" font-family="sans-serif" font-size="10" lengthAdjust="spacing" textLength="283" x="98" y="235.2979">Common Gateway Plugin | Commongateway | Openindex</text><!--SRC=[dOuz3i8m38NtdC8xD-ZAW3f0aIW7C8q9Hcc2OWUeA1BNu7gS1AYO-5aO_NrwpqzPFHKm9KMBYdLLbUWeMBnTha9XHU8pAmNFMz7XrfoJDD5xSYHc7QDIAc0SspO6cA3I0JkO- -muGF_YxeLxg7OKE5WwWjaGscTqqMoeHMCQZo9_Bu6J0HY1niZZnpSN4zCCiIr0D75mdxQqlzqoyOUidpE_LWxcIzt0twlsw3D90PWITkPy1m00]--></g></svg>