<?xml version="1.0" encoding="us-ascii" standalone="no"?><svg xmlns="http://www.w3.org/2000/svg" xmlns:xlink="http://www.w3.org/1999/xlink" contentStyleType="text/css" height="392px" preserveAspectRatio="none" style="width:291px;height:392px;background:#FFFFFF;" version="1.1" viewBox="0 0 291 392" width="291px" zoomAndPan="magnify"><defs/><g><text fill="#888888" font-family="sans-serif" font-size="10" lengthAdjust="spacing" textLength="40" x="243" y="9.2822">Schema</text><text fill="#000000" font-family="sans-serif" font-size="14" font-weight="bold" lengthAdjust="spacing" textLength="228" x="27.5" y="35.6357">MetadataTOOIklachtoordelen</text><!--class MetadataTOOIklachtoordelen--><g id="elem_MetadataTOOIklachtoordelen"><rect codeLine="5" fill="#F1F1F1" height="308.75" id="MetadataTOOIklachtoordelen" rx="2.5" ry="2.5" style="stroke:#181818;stroke-width:0.5;" width="233" x="25.5" y="56.9375"/><ellipse cx="40.5" cy="72.9375" fill="#ADD1B2" rx="11" ry="11" style="stroke:#181818;stroke-width:1.0;"/><path d="M43.4688,78.5781 Q42.8906,78.875 42.25,79.0156 Q41.6094,79.1719 40.9063,79.1719 Q38.4063,79.1719 37.0781,77.5313 Q35.7656,75.875 35.7656,72.75 Q35.7656,69.625 37.0781,67.9688 Q38.4063,66.3125 40.9063,66.3125 Q41.6094,66.3125 42.25,66.4688 Q42.9063,66.625 43.4688,66.9219 L43.4688,69.6406 Q42.8438,69.0625 42.25,68.7969 Q41.6563,68.5156 41.0313,68.5156 Q39.6875,68.5156 39,69.5938 Q38.3125,70.6563 38.3125,72.75 Q38.3125,74.8438 39,75.9219 Q39.6875,76.9844 41.0313,76.9844 Q41.6563,76.9844 42.25,76.7188 Q42.8438,76.4375 43.4688,75.8594 L43.4688,78.5781 Z " fill="#000000"/><text fill="#000000" font-family="sans-serif" font-size="14" lengthAdjust="spacing" textLength="201" x="54.5" y="77.7842">MetadataTOOIklachtoordelen</text><line style="stroke:#181818;stroke-width:0.5;" x1="26.5" x2="257.5" y1="88.9375" y2="88.9375"/><ellipse cx="36.5" cy="102.5859" fill="none" rx="3" ry="3" style="stroke:#038048;stroke-width:1.0;"/><text fill="#000000" font-family="sans-serif" font-size="14" lengthAdjust="spacing" textLength="180" x="45.5" y="105.9326">tooiCategorieNaam: string</text><ellipse cx="36.5" cy="118.8828" fill="none" rx="3" ry="3" style="stroke:#038048;stroke-width:1.0;"/><text fill="#000000" font-family="sans-serif" font-size="14" lengthAdjust="spacing" textLength="153" x="45.5" y="122.2295">tooiCategorieId: string</text><ellipse cx="36.5" cy="135.1797" fill="none" rx="3" ry="3" style="stroke:#038048;stroke-width:1.0;"/><text fill="#000000" font-family="sans-serif" font-size="14" lengthAdjust="spacing" textLength="159" x="45.5" y="138.5264">tooiCategorieUri: string</text><ellipse cx="36.5" cy="151.4766" fill="none" rx="3" ry="3" style="stroke:#038048;stroke-width:1.0;"/><text fill="#000000" font-family="sans-serif" font-size="14" lengthAdjust="spacing" textLength="161" x="45.5" y="154.8232">tooiThemaNaam: string</text><ellipse cx="36.5" cy="167.7734" fill="none" rx="3" ry="3" style="stroke:#038048;stroke-width:1.0;"/><text fill="#000000" font-family="sans-serif" font-size="14" lengthAdjust="spacing" textLength="134" x="45.5" y="171.1201">tooiThemaId: string</text><ellipse cx="36.5" cy="184.0703" fill="none" rx="3" ry="3" style="stroke:#038048;stroke-width:1.0;"/><text fill="#000000" font-family="sans-serif" font-size="14" lengthAdjust="spacing" textLength="140" x="45.5" y="187.417">tooiThemaUri: string</text><ellipse cx="36.5" cy="200.3672" fill="none" rx="3" ry="3" style="stroke:#038048;stroke-width:1.0;"/><text fill="#000000" font-family="sans-serif" font-size="14" lengthAdjust="spacing" textLength="139" x="45.5" y="203.7139">datumBesluit: string</text><ellipse cx="36.5" cy="216.6641" fill="none" rx="3" ry="3" style="stroke:#038048;stroke-width:1.0;"/><text fill="#000000" font-family="sans-serif" font-size="14" lengthAdjust="spacing" textLength="163" x="45.5" y="220.0107">datumOntvangst: string</text><ellipse cx="36.5" cy="232.9609" fill="none" rx="3" ry="3" style="stroke:#038048;stroke-width:1.0;"/><text fill="#000000" font-family="sans-serif" font-size="14" lengthAdjust="spacing" textLength="191" x="45.5" y="236.3076">termijnoverschrijding: string</text><ellipse cx="36.5" cy="249.2578" fill="none" rx="3" ry="3" style="stroke:#038048;stroke-width:1.0;"/><text fill="#000000" font-family="sans-serif" font-size="14" lengthAdjust="spacing" textLength="195" x="45.5" y="252.6045">organisatieonderdeel: string</text><ellipse cx="36.5" cy="265.5547" fill="none" rx="3" ry="3" style="stroke:#038048;stroke-width:1.0;"/><text fill="#000000" font-family="sans-serif" font-size="14" lengthAdjust="spacing" textLength="164" x="45.5" y="268.9014">functiebenaming: string</text><ellipse cx="36.5" cy="281.8516" fill="none" rx="3" ry="3" style="stroke:#038048;stroke-width:1.0;"/><text fill="#000000" font-family="sans-serif" font-size="14" lengthAdjust="spacing" textLength="118" x="45.5" y="285.1982">gedraging: string</text><ellipse cx="36.5" cy="298.1484" fill="none" rx="3" ry="3" style="stroke:#038048;stroke-width:1.0;"/><text fill="#000000" font-family="sans-serif" font-size="14" lengthAdjust="spacing" textLength="133" x="45.5" y="301.4951">bevindingen: string</text><ellipse cx="36.5" cy="314.4453" fill="none" rx="3" ry="3" style="stroke:#038048;stroke-width:1.0;"/><text fill="#000000" font-family="sans-serif" font-size="14" lengthAdjust="spacing" textLength="101" x="45.5" y="317.792">oordeel: string</text><ellipse cx="36.5" cy="330.7422" fill="none" rx="3" ry="3" style="stroke:#038048;stroke-width:1.0;"/><text fill="#000000" font-family="sans-serif" font-size="14" lengthAdjust="spacing" textLength="122" x="45.5" y="334.0889">conclusies: string</text><ellipse cx="36.5" cy="347.0391" fill="none" rx="3" ry="3" style="stroke:#038048;stroke-width:1.0;"/><text fill="#000000" font-family="sans-serif" font-size="14" lengthAdjust="spacing" textLength="86" x="45.5" y="350.3857">values: array</text><line style="stroke:#181818;stroke-width:0.5;" x1="26.5" x2="257.5" y1="357.6875" y2="357.6875"/></g><text fill="#888888" font-family="sans-serif" font-size="10" lengthAdjust="spacing" textLength="283" x="0" y="381.9697">Common Gateway Plugin | Commongateway | Openindex</text><!--SRC=[VP5DKiCm38NtFeNst21Bkc2wW313EO1gguwABJ7-IUbGxexJwIP9OQdtIK-Qfy8bK0VFLD1XmLtVRpy2sg6e9aU1n1nK2wKEDXgZ2ZnXeHEUuJLKpmANc-vlyWNwJn8MHrzW1a8tZRxPWI8QOmFc_Cyk-3O03z1gtZG_hudf1J5sa4jYyMkwTN-pzyGhk9iEkMjv9NVihlhIgfrVuoFbKBciGIzbHF5vZbg8aO-Y8wLiXyH7ryYiGvD7uOo5ILk0BHCAiuP35TlWdWJZSjYJI-YNwfx6zejMaSnNwThTgjXGCrEUoIE6EacO4fxDpoy0]--></g></svg>