<?xml version="1.0" encoding="us-ascii" standalone="no"?><svg xmlns="http://www.w3.org/2000/svg" xmlns:xlink="http://www.w3.org/1999/xlink" contentStyleType="text/css" height="229px" preserveAspectRatio="none" style="width:291px;height:229px;background:#FFFFFF;" version="1.1" viewBox="0 0 291 229" width="291px" zoomAndPan="magnify"><defs/><g><text fill="#888888" font-family="sans-serif" font-size="10" lengthAdjust="spacing" textLength="40" x="243" y="9.2822">Schema</text><text fill="#000000" font-family="sans-serif" font-size="14" font-weight="bold" lengthAdjust="spacing" textLength="90" x="96.5" y="35.6357">Onderwerp</text><!--class Onderwerp--><g id="elem_Onderwerp"><rect codeLine="5" fill="#F1F1F1" height="145.7813" id="Onderwerp" rx="2.5" ry="2.5" style="stroke:#181818;stroke-width:0.5;" width="167" x="58.5" y="56.9375"/><ellipse cx="99.6" cy="72.9375" fill="#ADD1B2" rx="11" ry="11" style="stroke:#181818;stroke-width:1.0;"/><path d="M102.5688,78.5781 Q101.9906,78.875 101.35,79.0156 Q100.7094,79.1719 100.0063,79.1719 Q97.5063,79.1719 96.1781,77.5313 Q94.8656,75.875 94.8656,72.75 Q94.8656,69.625 96.1781,67.9688 Q97.5063,66.3125 100.0063,66.3125 Q100.7094,66.3125 101.35,66.4688 Q102.0063,66.625 102.5688,66.9219 L102.5688,69.6406 Q101.9438,69.0625 101.35,68.7969 Q100.7563,68.5156 100.1313,68.5156 Q98.7875,68.5156 98.1,69.5938 Q97.4125,70.6563 97.4125,72.75 Q97.4125,74.8438 98.1,75.9219 Q98.7875,76.9844 100.1313,76.9844 Q100.7563,76.9844 101.35,76.7188 Q101.9438,76.4375 102.5688,75.8594 L102.5688,78.5781 Z " fill="#000000"/><text fill="#000000" font-family="sans-serif" font-size="14" lengthAdjust="spacing" textLength="77" x="119.4" y="77.7842">Onderwerp</text><line style="stroke:#181818;stroke-width:0.5;" x1="59.5" x2="224.5" y1="88.9375" y2="88.9375"/><ellipse cx="69.5" cy="102.5859" fill="none" rx="3" ry="3" style="stroke:#038048;stroke-width:1.0;"/><text fill="#000000" font-family="sans-serif" font-size="14" lengthAdjust="spacing" textLength="60" x="78.5" y="105.9326">id: string</text><ellipse cx="69.5" cy="118.8828" fill="none" rx="3" ry="3" style="stroke:#038048;stroke-width:1.0;"/><text fill="#000000" font-family="sans-serif" font-size="14" lengthAdjust="spacing" textLength="73" x="78.5" y="122.2295">titel: string</text><ellipse cx="69.5" cy="135.1797" fill="none" rx="3" ry="3" style="stroke:#038048;stroke-width:1.0;"/><text fill="#000000" font-family="sans-serif" font-size="14" lengthAdjust="spacing" textLength="141" x="78.5" y="138.5264">samenvatting: string</text><ellipse cx="69.5" cy="151.4766" fill="none" rx="3" ry="3" style="stroke:#038048;stroke-width:1.0;"/><text fill="#000000" font-family="sans-serif" font-size="14" lengthAdjust="spacing" textLength="130" x="78.5" y="154.8232">beschrijving: string</text><ellipse cx="69.5" cy="167.7734" fill="none" rx="3" ry="3" style="stroke:#038048;stroke-width:1.0;"/><text fill="#000000" font-family="sans-serif" font-size="14" lengthAdjust="spacing" textLength="120" x="78.5" y="171.1201">afbeelding: string</text><ellipse cx="69.5" cy="184.0703" fill="none" rx="3" ry="3" style="stroke:#038048;stroke-width:1.0;"/><text fill="#000000" font-family="sans-serif" font-size="14" lengthAdjust="spacing" textLength="132" x="78.5" y="187.417">publicaties: integer</text><line style="stroke:#181818;stroke-width:0.5;" x1="59.5" x2="224.5" y1="194.7188" y2="194.7188"/></g><text fill="#888888" font-family="sans-serif" font-size="10" lengthAdjust="spacing" textLength="283" x="0" y="219.001">Common Gateway Plugin | Commongateway | Openindex</text><!--SRC=[NSn13e8m50JGVK_nzzwWMnSkCV44dpAKRqfBsWzenBkBXiJ0SjvaHaK3B5MnGPwH1zEcfCYMpgdlKwGBAsP-qZMCNY8jc_kD5we6H5dN3p8TkFbERwv3pyQumANyh-bbY4uaZQMYMQB_HHL5s4dX7d5YrHLsHOtYkYptwLXmMmEXEV8mra4Sgw1OagZmoERz0G00]--></g></svg>