<svg xmlns="http://www.w3.org/2000/svg" xmlns:xlink="http://www.w3.org/1999/xlink" contentStyleType="text/css" height="261px" preserveAspectRatio="none" style="width:291px;height:261px;background:#FFFFFF;" version="1.1" viewBox="0 0 291 261" width="291px" zoomAndPan="magnify"><defs/><g><text fill="#888888" font-family="sans-serif" font-size="10" lengthAdjust="spacing" textLength="40" x="243" y="9.2822">Schema</text><text fill="#000000" font-family="sans-serif" font-size="14" font-weight="bold" lengthAdjust="spacing" textLength="100" x="91.5" y="35.6357">Organization</text><!--class Organization--><g id="elem_Organization"><rect codeLine="5" fill="#F1F1F1" height="178.375" id="Organization" rx="2.5" ry="2.5" style="stroke:#181818;stroke-width:0.5;" width="151" x="66.5" y="56.9375"/><ellipse cx="95.9" cy="72.9375" fill="#ADD1B2" rx="11" ry="11" style="stroke:#181818;stroke-width:1.0;"/><path d="M98.8688,78.5781 Q98.2906,78.875 97.65,79.0156 Q97.0094,79.1719 96.3063,79.1719 Q93.8063,79.1719 92.4781,77.5313 Q91.1656,75.875 91.1656,72.75 Q91.1656,69.625 92.4781,67.9688 Q93.8063,66.3125 96.3063,66.3125 Q97.0094,66.3125 97.65,66.4688 Q98.3063,66.625 98.8688,66.9219 L98.8688,69.6406 Q98.2438,69.0625 97.65,68.7969 Q97.0563,68.5156 96.4313,68.5156 Q95.0875,68.5156 94.4,69.5938 Q93.7125,70.6563 93.7125,72.75 Q93.7125,74.8438 94.4,75.9219 Q95.0875,76.9844 96.4313,76.9844 Q97.0563,76.9844 97.65,76.7188 Q98.2438,76.4375 98.8688,75.8594 L98.8688,78.5781 Z " fill="#000000"/><text fill="#000000" font-family="sans-serif" font-size="14" lengthAdjust="spacing" textLength="87" x="113.1" y="77.7842">Organization</text><line style="stroke:#181818;stroke-width:0.5;" x1="67.5" x2="216.5" y1="88.9375" y2="88.9375"/><ellipse cx="77.5" cy="102.5859" fill="none" rx="3" ry="3" style="stroke:#038048;stroke-width:1.0;"/><text fill="#000000" font-family="sans-serif" font-size="14" lengthAdjust="spacing" textLength="60" x="86.5" y="105.9326">id: string</text><ellipse cx="77.5" cy="118.8828" fill="none" rx="3" ry="3" style="stroke:#038048;stroke-width:1.0;"/><text fill="#000000" font-family="sans-serif" font-size="14" lengthAdjust="spacing" textLength="73" x="86.5" y="122.2295">title: string</text><ellipse cx="77.5" cy="135.1797" fill="none" rx="3" ry="3" style="stroke:#038048;stroke-width:1.0;"/><text fill="#000000" font-family="sans-serif" font-size="14" lengthAdjust="spacing" textLength="111" x="86.5" y="138.5264">summary: string</text><ellipse cx="77.5" cy="151.4766" fill="none" rx="3" ry="3" style="stroke:#038048;stroke-width:1.0;"/><text fill="#000000" font-family="sans-serif" font-size="14" lengthAdjust="spacing" textLength="125" x="86.5" y="154.8232">description: string</text><ellipse cx="77.5" cy="167.7734" fill="none" rx="3" ry="3" style="stroke:#038048;stroke-width:1.0;"/><text fill="#000000" font-family="sans-serif" font-size="14" lengthAdjust="spacing" textLength="90" x="86.5" y="171.1201">image: string</text><ellipse cx="77.5" cy="184.0703" fill="none" rx="3" ry="3" style="stroke:#038048;stroke-width:1.0;"/><text fill="#000000" font-family="sans-serif" font-size="14" lengthAdjust="spacing" textLength="69" x="86.5" y="187.417">oin: string</text><ellipse cx="77.5" cy="200.3672" fill="none" rx="3" ry="3" style="stroke:#038048;stroke-width:1.0;"/><text fill="#000000" font-family="sans-serif" font-size="14" lengthAdjust="spacing" textLength="74" x="86.5" y="203.7139">tooi: string</text><ellipse cx="77.5" cy="216.6641" fill="none" rx="3" ry="3" style="stroke:#038048;stroke-width:1.0;"/><text fill="#000000" font-family="sans-serif" font-size="14" lengthAdjust="spacing" textLength="73" x="86.5" y="220.0107">rsin: string</text><line style="stroke:#181818;stroke-width:0.5;" x1="67.5" x2="216.5" y1="227.3125" y2="227.3125"/></g><text fill="#888888" font-family="sans-serif" font-size="10" lengthAdjust="spacing" textLength="283" x="0" y="251.5947">Common Gateway Plugin | Commongateway | Openindex</text><!--SRC=[LSun3i8m30NGFQVmpWsoCZ0MYHDOYKaj9NQLk892kJigT6X6F_t_PMFBv66e2OLVQApYxgf6rSDPIr612nezS85hdXCBhBkddLSO9XAMI4zm8s7SghSmKa7dGiRMkdLuEu0JSFJGhBAatsd_DmxIvbAmBfr5Qg7ojCrqpWLJtrRk4wRA7THsI7o-]--></g></svg>