<svg xmlns="http://www.w3.org/2000/svg" xmlns:xlink="http://www.w3.org/1999/xlink" contentStyleType="text/css" height="441px" preserveAspectRatio="none" style="width:291px;height:441px;background:#FFFFFF;" version="1.1" viewBox="0 0 291 441" width="291px" zoomAndPan="magnify"><defs/><g><text fill="#888888" font-family="sans-serif" font-size="10" lengthAdjust="spacing" textLength="40" x="243" y="9.2822">Schema</text><text fill="#000000" font-family="sans-serif" font-size="14" font-weight="bold" lengthAdjust="spacing" textLength="86" x="98.5" y="35.6357">Publication</text><!--class Publication--><g id="elem_Publication"><rect codeLine="5" fill="#F1F1F1" height="357.6406" id="Publication" rx="2.5" ry="2.5" style="stroke:#181818;stroke-width:0.5;" width="210" x="37" y="56.9375"/><ellipse cx="100.25" cy="72.9375" fill="#ADD1B2" rx="11" ry="11" style="stroke:#181818;stroke-width:1.0;"/><path d="M103.2188,78.5781 Q102.6406,78.875 102,79.0156 Q101.3594,79.1719 100.6563,79.1719 Q98.1563,79.1719 96.8281,77.5313 Q95.5156,75.875 95.5156,72.75 Q95.5156,69.625 96.8281,67.9688 Q98.1563,66.3125 100.6563,66.3125 Q101.3594,66.3125 102,66.4688 Q102.6563,66.625 103.2188,66.9219 L103.2188,69.6406 Q102.5938,69.0625 102,68.7969 Q101.4063,68.5156 100.7813,68.5156 Q99.4375,68.5156 98.75,69.5938 Q98.0625,70.6563 98.0625,72.75 Q98.0625,74.8438 98.75,75.9219 Q99.4375,76.9844 100.7813,76.9844 Q101.4063,76.9844 102,76.7188 Q102.5938,76.4375 103.2188,75.8594 L103.2188,78.5781 Z " fill="#000000"/><text fill="#000000" font-family="sans-serif" font-size="14" lengthAdjust="spacing" textLength="75" x="120.75" y="77.7842">Publication</text><line style="stroke:#181818;stroke-width:0.5;" x1="38" x2="246" y1="88.9375" y2="88.9375"/><ellipse cx="48" cy="102.5859" fill="none" rx="3" ry="3" style="stroke:#038048;stroke-width:1.0;"/><text fill="#000000" font-family="sans-serif" font-size="14" lengthAdjust="spacing" textLength="60" x="57" y="105.9326">id: string</text><ellipse cx="48" cy="118.8828" fill="none" rx="3" ry="3" style="stroke:#038048;stroke-width:1.0;"/><text fill="#000000" font-family="sans-serif" font-size="14" lengthAdjust="spacing" textLength="115" x="57" y="122.2295">reference: string</text><ellipse cx="48" cy="135.1797" fill="none" rx="3" ry="3" style="stroke:#038048;stroke-width:1.0;"/><text fill="#000000" font-family="sans-serif" font-size="14" lengthAdjust="spacing" textLength="73" x="57" y="138.5264">title: string</text><ellipse cx="48" cy="151.4766" fill="none" rx="3" ry="3" style="stroke:#038048;stroke-width:1.0;"/><text fill="#000000" font-family="sans-serif" font-size="14" lengthAdjust="spacing" textLength="111" x="57" y="154.8232">summary: string</text><ellipse cx="48" cy="167.7734" fill="none" rx="3" ry="3" style="stroke:#038048;stroke-width:1.0;"/><text fill="#000000" font-family="sans-serif" font-size="14" lengthAdjust="spacing" textLength="125" x="57" y="171.1201">description: string</text><ellipse cx="48" cy="184.0703" fill="none" rx="3" ry="3" style="stroke:#038048;stroke-width:1.0;"/><text fill="#000000" font-family="sans-serif" font-size="14" lengthAdjust="spacing" textLength="90" x="57" y="187.417">image: string</text><ellipse cx="48" cy="200.3672" fill="none" rx="3" ry="3" style="stroke:#038048;stroke-width:1.0;"/><text fill="#000000" font-family="sans-serif" font-size="14" lengthAdjust="spacing" textLength="108" x="57" y="203.7139">category: string</text><ellipse cx="48" cy="216.6641" fill="none" rx="3" ry="3" style="stroke:#038048;stroke-width:1.0;"/><text fill="#000000" font-family="sans-serif" font-size="14" lengthAdjust="spacing" textLength="87" x="57" y="220.0107">portal: string</text><ellipse cx="48" cy="232.9609" fill="none" rx="3" ry="3" style="stroke:#038048;stroke-width:1.0;"/><text fill="#000000" font-family="sans-serif" font-size="14" lengthAdjust="spacing" textLength="156" x="57" y="236.3076">publicationDate: string</text><ellipse cx="48" cy="249.2578" fill="none" rx="3" ry="3" style="stroke:#038048;stroke-width:1.0;"/><text fill="#000000" font-family="sans-serif" font-size="14" lengthAdjust="spacing" textLength="123" x="57" y="252.6045">featured: boolean</text><ellipse cx="48" cy="265.5547" fill="none" rx="3" ry="3" style="stroke:#038048;stroke-width:1.0;"/><text fill="#000000" font-family="sans-serif" font-size="14" lengthAdjust="spacing" textLength="137" x="57" y="268.9014">organization: object</text><ellipse cx="48" cy="281.8516" fill="none" rx="3" ry="3" style="stroke:#038048;stroke-width:1.0;"/><text fill="#000000" font-family="sans-serif" font-size="14" lengthAdjust="spacing" textLength="103" x="57" y="285.1982">schema: string</text><ellipse cx="48" cy="298.1484" fill="none" rx="3" ry="3" style="stroke:#038048;stroke-width:1.0;"/><text fill="#000000" font-family="sans-serif" font-size="14" lengthAdjust="spacing" textLength="91" x="57" y="301.4951">status: string</text><ellipse cx="48" cy="314.4453" fill="none" rx="3" ry="3" style="stroke:#038048;stroke-width:1.0;"/><text fill="#000000" font-family="sans-serif" font-size="14" lengthAdjust="spacing" textLength="129" x="57" y="317.792">attachments: array</text><ellipse cx="48" cy="330.7422" fill="none" rx="3" ry="3" style="stroke:#038048;stroke-width:1.0;"/><text fill="#000000" font-family="sans-serif" font-size="14" lengthAdjust="spacing" textLength="184" x="57" y="334.0889">attachment_count: integer</text><ellipse cx="48" cy="347.0391" fill="none" rx="3" ry="3" style="stroke:#038048;stroke-width:1.0;"/><text fill="#000000" font-family="sans-serif" font-size="14" lengthAdjust="spacing" textLength="95" x="57" y="350.3857">themes: array</text><ellipse cx="48" cy="363.3359" fill="none" rx="3" ry="3" style="stroke:#038048;stroke-width:1.0;"/><text fill="#000000" font-family="sans-serif" font-size="14" lengthAdjust="spacing" textLength="64" x="57" y="366.6826">data: Any</text><ellipse cx="48" cy="379.6328" fill="none" rx="3" ry="3" style="stroke:#038048;stroke-width:1.0;"/><text fill="#000000" font-family="sans-serif" font-size="14" lengthAdjust="spacing" textLength="152" x="57" y="382.9795">anonymization: object</text><ellipse cx="48" cy="395.9297" fill="none" rx="3" ry="3" style="stroke:#038048;stroke-width:1.0;"/><text fill="#000000" font-family="sans-serif" font-size="14" lengthAdjust="spacing" textLength="116" x="57" y="399.2764">language: object</text><line style="stroke:#181818;stroke-width:0.5;" x1="38" x2="246" y1="406.5781" y2="406.5781"/></g><text fill="#888888" font-family="sans-serif" font-size="10" lengthAdjust="spacing" textLength="283" x="0" y="430.8604">Common Gateway Plugin | Commongateway | Openindex</text><!--SRC=[RP11JiGm34NtFONttA0x119BHk80o4tTD2YnAyVHK1ZkJgQjn6J4CY_vFy-sO95wE9KX1eSMXBj9n4XxU9AKXE45ZSwumYaM7nWk1_S7li3hGXnuf4_ePiBn6drpCoNiEXSnvzjo-Eu07Y2CFMJJm7uxAasan8uQQhlQ3Sab9TIrOIDbfs6vbZSy9FHjkXgGbxlu8ceOM_Id-rmZpTr4Q4MfwWyYaP0tAkgHmnVk4Z9yaBDTUDj3EuFLXjmWD4Ct9sAh75LnlSFlJWfR3u7h1AJxTcepDUz7jFhL8nzf5bxJVr8HsPTjEGVy-GK0]--></g></svg>