<?xml version="1.0" encoding="us-ascii" standalone="no"?><svg xmlns="http://www.w3.org/2000/svg" xmlns:xlink="http://www.w3.org/1999/xlink" contentStyleType="text/css" height="229px" preserveAspectRatio="none" style="width:291px;height:229px;background:#FFFFFF;" version="1.1" viewBox="0 0 291 229" width="291px" zoomAndPan="magnify"><defs/><g><text fill="#888888" font-family="sans-serif" font-size="10" lengthAdjust="spacing" textLength="40" x="243" y="9.2822">Schema</text><text fill="#000000" font-family="sans-serif" font-size="14" font-weight="bold" lengthAdjust="spacing" textLength="53" x="115" y="35.6357">Thema</text><!--class Thema--><g id="elem_Thema"><rect codeLine="5" fill="#F1F1F1" height="145.7813" id="Thema" rx="2.5" ry="2.5" style="stroke:#181818;stroke-width:0.5;" width="167" x="58.5" y="56.9375"/><ellipse cx="113.75" cy="72.9375" fill="#ADD1B2" rx="11" ry="11" style="stroke:#181818;stroke-width:1.0;"/><path d="M116.7188,78.5781 Q116.1406,78.875 115.5,79.0156 Q114.8594,79.1719 114.1563,79.1719 Q111.6563,79.1719 110.3281,77.5313 Q109.0156,75.875 109.0156,72.75 Q109.0156,69.625 110.3281,67.9688 Q111.6563,66.3125 114.1563,66.3125 Q114.8594,66.3125 115.5,66.4688 Q116.1563,66.625 116.7188,66.9219 L116.7188,69.6406 Q116.0938,69.0625 115.5,68.7969 Q114.9063,68.5156 114.2813,68.5156 Q112.9375,68.5156 112.25,69.5938 Q111.5625,70.6563 111.5625,72.75 Q111.5625,74.8438 112.25,75.9219 Q112.9375,76.9844 114.2813,76.9844 Q114.9063,76.9844 115.5,76.7188 Q116.0938,76.4375 116.7188,75.8594 L116.7188,78.5781 Z " fill="#000000"/><text fill="#000000" font-family="sans-serif" font-size="14" lengthAdjust="spacing" textLength="48" x="134.25" y="77.7842">Thema</text><line style="stroke:#181818;stroke-width:0.5;" x1="59.5" x2="224.5" y1="88.9375" y2="88.9375"/><ellipse cx="69.5" cy="102.5859" fill="none" rx="3" ry="3" style="stroke:#038048;stroke-width:1.0;"/><text fill="#000000" font-family="sans-serif" font-size="14" lengthAdjust="spacing" textLength="60" x="78.5" y="105.9326">id: string</text><ellipse cx="69.5" cy="118.8828" fill="none" rx="3" ry="3" style="stroke:#038048;stroke-width:1.0;"/><text fill="#000000" font-family="sans-serif" font-size="14" lengthAdjust="spacing" textLength="73" x="78.5" y="122.2295">titel: string</text><ellipse cx="69.5" cy="135.1797" fill="none" rx="3" ry="3" style="stroke:#038048;stroke-width:1.0;"/><text fill="#000000" font-family="sans-serif" font-size="14" lengthAdjust="spacing" textLength="141" x="78.5" y="138.5264">samenvatting: string</text><ellipse cx="69.5" cy="151.4766" fill="none" rx="3" ry="3" style="stroke:#038048;stroke-width:1.0;"/><text fill="#000000" font-family="sans-serif" font-size="14" lengthAdjust="spacing" textLength="130" x="78.5" y="154.8232">beschrijving: string</text><ellipse cx="69.5" cy="167.7734" fill="none" rx="3" ry="3" style="stroke:#038048;stroke-width:1.0;"/><text fill="#000000" font-family="sans-serif" font-size="14" lengthAdjust="spacing" textLength="120" x="78.5" y="171.1201">afbeelding: string</text><ellipse cx="69.5" cy="184.0703" fill="none" rx="3" ry="3" style="stroke:#038048;stroke-width:1.0;"/><text fill="#000000" font-family="sans-serif" font-size="14" lengthAdjust="spacing" textLength="132" x="78.5" y="187.417">publicaties: integer</text><line style="stroke:#181818;stroke-width:0.5;" x1="59.5" x2="224.5" y1="194.7188" y2="194.7188"/></g><text fill="#888888" font-family="sans-serif" font-size="10" lengthAdjust="spacing" textLength="283" x="0" y="219.001">Common Gateway Plugin | Commongateway | Openindex</text><!--SRC=[NSmx3i8m40JGtgVOdXkufQ042IwmSIRE8dyYUyD7XBi38KrIpXlDg6Y0fKkFoARBML4ixNECET615NT-qYcCNX9DY_k59peEI99QFCZquFOtFRlvoRZ0jVvlwMM8TYIjfQf5af-ZYYAif794kh7g5rP5W-hw8jVRjk2k0KAxvM5iWZXMGRKaIU5HpFi3]--></g></svg>