<?xml version="1.0" encoding="us-ascii" standalone="no"?><svg xmlns="http://www.w3.org/2000/svg" xmlns:xlink="http://www.w3.org/1999/xlink" contentStyleType="text/css" height="619px" preserveAspectRatio="none" style="width:809px;height:619px;background:#FFFFFF;" version="1.1" viewBox="0 0 809 619" width="809px" zoomAndPan="magnify"><defs/><g><rect fill="#FFFFFF" height="104.5313" style="stroke:#000000;stroke-width:1.0;" width="402" x="225.5" y="213.6953"/><line style="stroke:#000000;stroke-width:1.0;" x1="50" x2="50" y1="82.2969" y2="325.2266"/><line style="stroke:#000000;stroke-width:1.0;stroke-dasharray:1.0,4.0;" x1="50" x2="50" y1="325.2266" y2="353.2266"/><line style="stroke:#000000;stroke-width:1.0;" x1="50" x2="50" y1="353.2266" y2="538.0234"/><line style="stroke:#000000;stroke-width:1.0;" x1="310.5" x2="310.5" y1="82.2969" y2="325.2266"/><line style="stroke:#000000;stroke-width:1.0;stroke-dasharray:1.0,4.0;" x1="310.5" x2="310.5" y1="325.2266" y2="353.2266"/><line style="stroke:#000000;stroke-width:1.0;" x1="310.5" x2="310.5" y1="353.2266" y2="538.0234"/><line style="stroke:#000000;stroke-width:1.0;" x1="429.5" x2="429.5" y1="82.2969" y2="325.2266"/><line style="stroke:#000000;stroke-width:1.0;stroke-dasharray:1.0,4.0;" x1="429.5" x2="429.5" y1="325.2266" y2="353.2266"/><line style="stroke:#000000;stroke-width:1.0;" x1="429.5" x2="429.5" y1="353.2266" y2="538.0234"/><line style="stroke:#000000;stroke-width:1.0;" x1="506.5" x2="506.5" y1="82.2969" y2="325.2266"/><line style="stroke:#000000;stroke-width:1.0;stroke-dasharray:1.0,4.0;" x1="506.5" x2="506.5" y1="325.2266" y2="353.2266"/><line style="stroke:#000000;stroke-width:1.0;" x1="506.5" x2="506.5" y1="353.2266" y2="538.0234"/><line style="stroke:#000000;stroke-width:1.0;" x1="583.5" x2="583.5" y1="82.2969" y2="325.2266"/><line style="stroke:#000000;stroke-width:1.0;stroke-dasharray:1.0,4.0;" x1="583.5" x2="583.5" y1="325.2266" y2="353.2266"/><line style="stroke:#000000;stroke-width:1.0;" x1="583.5" x2="583.5" y1="353.2266" y2="538.0234"/><line style="stroke:#000000;stroke-width:1.0;" x1="712.5" x2="712.5" y1="82.2969" y2="325.2266"/><line style="stroke:#000000;stroke-width:1.0;stroke-dasharray:1.0,4.0;" x1="712.5" x2="712.5" y1="325.2266" y2="353.2266"/><line style="stroke:#000000;stroke-width:1.0;" x1="712.5" x2="712.5" y1="353.2266" y2="538.0234"/><text fill="#000000" font-family="Verdana" font-size="14" lengthAdjust="spacing" textLength="74" x="10" y="78.9951">Requester</text><ellipse cx="50" cy="14" fill="#FFFFFF" rx="8" ry="8" style="stroke:#000000;stroke-width:1.0;"/><path d="M50,22 L50,49 M37,30 L63,30 M50,49 L37,64 M50,49 L63,64 " fill="none" style="stroke:#000000;stroke-width:1.0;"/><text fill="#000000" font-family="Verdana" font-size="14" lengthAdjust="spacing" textLength="74" x="10" y="550.0186">Requester</text><ellipse cx="50" cy="562.3203" fill="#FFFFFF" rx="8" ry="8" style="stroke:#000000;stroke-width:1.0;"/><path d="M50,570.3203 L50,597.3203 M37,578.3203 L63,578.3203 M50,597.3203 L37,612.3203 M50,597.3203 L63,612.3203 " fill="none" style="stroke:#000000;stroke-width:1.0;"/><text fill="#000000" font-family="Verdana" font-size="14" lengthAdjust="spacing" textLength="145" x="235.5" y="78.9951">Federatief Endpoint</text><ellipse cx="311" cy="50" fill="#FFFFFF" rx="12" ry="12" style="stroke:#000000;stroke-width:1.0;"/><line style="stroke:#000000;stroke-width:1.0;" x1="299" x2="323" y1="64" y2="64"/><text fill="#000000" font-family="Verdana" font-size="14" lengthAdjust="spacing" textLength="145" x="235.5" y="550.0186">Federatief Endpoint</text><ellipse cx="311" cy="569.3203" fill="#FFFFFF" rx="12" ry="12" style="stroke:#000000;stroke-width:1.0;"/><line style="stroke:#000000;stroke-width:1.0;" x1="299" x2="323" y1="583.3203" y2="583.3203"/><path d="M401.5,56 L458.5,56 C463.5,56 463.5,69.1484 463.5,69.1484 C463.5,69.1484 463.5,82.2969 458.5,82.2969 L401.5,82.2969 C396.5,82.2969 396.5,69.1484 396.5,69.1484 C396.5,69.1484 396.5,56 401.5,56 " fill="#FFFFFF" style="stroke:#000000;stroke-width:1.0;"/><path d="M458.5,56 C453.5,56 453.5,69.1484 453.5,69.1484 C453.5,82.2969 458.5,82.2969 458.5,82.2969 " fill="none" style="stroke:#000000;stroke-width:1.0;"/><text fill="#000000" font-family="Verdana" font-size="14" lengthAdjust="spacing" textLength="47" x="401.5" y="73.9951">Bron 1</text><path d="M401.5,537.0234 L458.5,537.0234 C463.5,537.0234 463.5,550.1719 463.5,550.1719 C463.5,550.1719 463.5,563.3203 458.5,563.3203 L401.5,563.3203 C396.5,563.3203 396.5,550.1719 396.5,550.1719 C396.5,550.1719 396.5,537.0234 401.5,537.0234 " fill="#FFFFFF" style="stroke:#000000;stroke-width:1.0;"/><path d="M458.5,537.0234 C453.5,537.0234 453.5,550.1719 453.5,550.1719 C453.5,563.3203 458.5,563.3203 458.5,563.3203 " fill="none" style="stroke:#000000;stroke-width:1.0;"/><text fill="#000000" font-family="Verdana" font-size="14" lengthAdjust="spacing" textLength="47" x="401.5" y="555.0186">Bron 1</text><path d="M478.5,56 L534.5,56 C539.5,56 539.5,69.1484 539.5,69.1484 C539.5,69.1484 539.5,82.2969 534.5,82.2969 L478.5,82.2969 C473.5,82.2969 473.5,69.1484 473.5,69.1484 C473.5,69.1484 473.5,56 478.5,56 " fill="#FFFFFF" style="stroke:#000000;stroke-width:1.0;"/><path d="M534.5,56 C529.5,56 529.5,69.1484 529.5,69.1484 C529.5,82.2969 534.5,82.2969 534.5,82.2969 " fill="none" style="stroke:#000000;stroke-width:1.0;"/><text fill="#000000" font-family="Verdana" font-size="14" lengthAdjust="spacing" textLength="46" x="478.5" y="73.9951">Bron 2</text><path d="M478.5,537.0234 L534.5,537.0234 C539.5,537.0234 539.5,550.1719 539.5,550.1719 C539.5,550.1719 539.5,563.3203 534.5,563.3203 L478.5,563.3203 C473.5,563.3203 473.5,550.1719 473.5,550.1719 C473.5,550.1719 473.5,537.0234 478.5,537.0234 " fill="#FFFFFF" style="stroke:#000000;stroke-width:1.0;"/><path d="M534.5,537.0234 C529.5,537.0234 529.5,550.1719 529.5,550.1719 C529.5,563.3203 534.5,563.3203 534.5,563.3203 " fill="none" style="stroke:#000000;stroke-width:1.0;"/><text fill="#000000" font-family="Verdana" font-size="14" lengthAdjust="spacing" textLength="46" x="478.5" y="555.0186">Bron 2</text><path d="M554.5,56 L612.5,56 C617.5,56 617.5,69.1484 617.5,69.1484 C617.5,69.1484 617.5,82.2969 612.5,82.2969 L554.5,82.2969 C549.5,82.2969 549.5,69.1484 549.5,69.1484 C549.5,69.1484 549.5,56 554.5,56 " fill="#FFFFFF" style="stroke:#000000;stroke-width:1.0;"/><path d="M612.5,56 C607.5,56 607.5,69.1484 607.5,69.1484 C607.5,82.2969 612.5,82.2969 612.5,82.2969 " fill="none" style="stroke:#000000;stroke-width:1.0;"/><text fill="#000000" font-family="Verdana" font-size="14" lengthAdjust="spacing" textLength="48" x="554.5" y="73.9951">Bron N</text><path d="M554.5,537.0234 L612.5,537.0234 C617.5,537.0234 617.5,550.1719 617.5,550.1719 C617.5,550.1719 617.5,563.3203 612.5,563.3203 L554.5,563.3203 C549.5,563.3203 549.5,550.1719 549.5,550.1719 C549.5,550.1719 549.5,537.0234 554.5,537.0234 " fill="#FFFFFF" style="stroke:#000000;stroke-width:1.0;"/><path d="M612.5,537.0234 C607.5,537.0234 607.5,550.1719 607.5,550.1719 C607.5,563.3203 612.5,563.3203 612.5,563.3203 " fill="none" style="stroke:#000000;stroke-width:1.0;"/><text fill="#000000" font-family="Verdana" font-size="14" lengthAdjust="spacing" textLength="48" x="554.5" y="555.0186">Bron N</text><text fill="#000000" font-family="Verdana" font-size="14" lengthAdjust="spacing" textLength="164" x="627.5" y="78.9951">Resultaten Verwerking</text><path d="M694.5,30 C694.5,20 712.5,20 712.5,20 C712.5,20 730.5,20 730.5,30 L730.5,56 C730.5,66 712.5,66 712.5,66 C712.5,66 694.5,66 694.5,56 L694.5,30 " fill="#FFFFFF" style="stroke:#000000;stroke-width:1.5;"/><path d="M694.5,30 C694.5,40 712.5,40 712.5,40 C712.5,40 730.5,40 730.5,30 " fill="none" style="stroke:#000000;stroke-width:1.5;"/><text fill="#000000" font-family="Verdana" font-size="14" lengthAdjust="spacing" textLength="164" x="627.5" y="550.0186">Resultaten Verwerking</text><path d="M694.5,563.3203 C694.5,553.3203 712.5,553.3203 712.5,553.3203 C712.5,553.3203 730.5,553.3203 730.5,563.3203 L730.5,589.3203 C730.5,599.3203 712.5,599.3203 712.5,599.3203 C712.5,599.3203 694.5,599.3203 694.5,589.3203 L694.5,563.3203 " fill="#FFFFFF" style="stroke:#000000;stroke-width:1.5;"/><path d="M694.5,563.3203 C694.5,573.3203 712.5,573.3203 712.5,573.3203 C712.5,573.3203 730.5,573.3203 730.5,563.3203 " fill="none" style="stroke:#000000;stroke-width:1.5;"/><rect fill="#FFFFFF" height="3" style="stroke:#FFFFFF;stroke-width:1.0;" width="797.5" x="5" y="112.8633"/><line style="stroke:#000000;stroke-width:0.5;" x1="5" x2="802.5" y1="112.8633" y2="112.8633"/><line style="stroke:#000000;stroke-width:0.5;" x1="5" x2="802.5" y1="115.8633" y2="115.8633"/><rect fill="#FFFFFF" height="23.1328" style="stroke:#000000;stroke-width:1.0;" width="150" x="328.75" y="102.2969"/><text fill="#000000" font-family="Verdana" font-size="13" font-weight="bold" lengthAdjust="spacing" textLength="131" x="334.75" y="118.3638">Bevraging Proces</text><polygon fill="#000000" points="299,152.5625,309,156.5625,299,160.5625,303,156.5625" style="stroke:#000000;stroke-width:1.0;"/><line style="stroke:#000000;stroke-width:1.0;" x1="50" x2="305" y1="156.5625" y2="156.5625"/><text fill="#000000" font-family="Verdana" font-size="13" lengthAdjust="spacing" textLength="185" x="57" y="151.4966">Bevraagt federatief endpoint</text><line style="stroke:#000000;stroke-width:1.0;" x1="311" x2="353" y1="185.6953" y2="185.6953"/><line style="stroke:#000000;stroke-width:1.0;" x1="353" x2="353" y1="185.6953" y2="198.6953"/><line style="stroke:#000000;stroke-width:1.0;" x1="312" x2="353" y1="198.6953" y2="198.6953"/><polygon fill="#000000" points="322,194.6953,312,198.6953,322,202.6953,318,198.6953" style="stroke:#000000;stroke-width:1.0;"/><text fill="#000000" font-family="Verdana" font-size="13" lengthAdjust="spacing" textLength="102" x="318" y="180.6294">Bepaalt sources</text><path d="M225.5,213.6953 L561.5,213.6953 L561.5,220.8281 L551.5,230.8281 L225.5,230.8281 L225.5,213.6953 " fill="#FFFFFF" style="stroke:#000000;stroke-width:1.0;"/><rect fill="none" height="104.5313" style="stroke:#000000;stroke-width:1.0;" width="402" x="225.5" y="213.6953"/><text fill="#000000" font-family="Verdana" font-size="13" font-weight="bold" lengthAdjust="spacing" textLength="291" x="240.5" y="226.7622">Asynchroon bevragen van alle bronnen</text><polygon fill="#000000" points="418,247.9609,428,251.9609,418,255.9609,422,251.9609" style="stroke:#000000;stroke-width:1.0;"/><line style="stroke:#000000;stroke-width:1.0;" x1="311" x2="424" y1="251.9609" y2="251.9609"/><text fill="#000000" font-family="Verdana" font-size="13" lengthAdjust="spacing" textLength="70" x="318" y="246.895">Stelt vraag</text><polygon fill="#000000" points="494.5,277.0938,504.5,281.0938,494.5,285.0938,498.5,281.0938" style="stroke:#000000;stroke-width:1.0;"/><line style="stroke:#000000;stroke-width:1.0;" x1="311" x2="500.5" y1="281.0938" y2="281.0938"/><text fill="#000000" font-family="Verdana" font-size="13" lengthAdjust="spacing" textLength="70" x="318" y="276.0278">Stelt vraag</text><polygon fill="#000000" points="571.5,306.2266,581.5,310.2266,571.5,314.2266,575.5,310.2266" style="stroke:#000000;stroke-width:1.0;"/><line style="stroke:#000000;stroke-width:1.0;" x1="311" x2="577.5" y1="310.2266" y2="310.2266"/><text fill="#000000" font-family="Verdana" font-size="13" lengthAdjust="spacing" textLength="70" x="318" y="305.1606">Stelt vraag</text><polygon fill="#000000" points="322,370.3594,312,374.3594,322,378.3594,318,374.3594" style="stroke:#000000;stroke-width:1.0;"/><line style="stroke:#000000;stroke-width:1.0;" x1="316" x2="429" y1="374.3594" y2="374.3594"/><text fill="#000000" font-family="Verdana" font-size="13" lengthAdjust="spacing" textLength="73" x="328" y="369.2935">Resultaat 1</text><polygon fill="#000000" points="322,399.4922,312,403.4922,322,407.4922,318,403.4922" style="stroke:#000000;stroke-width:1.0;"/><line style="stroke:#000000;stroke-width:1.0;" x1="316" x2="505.5" y1="403.4922" y2="403.4922"/><text fill="#000000" font-family="Verdana" font-size="13" lengthAdjust="spacing" textLength="73" x="328" y="398.4263">Resultaat 2</text><polygon fill="#000000" points="322,428.625,312,432.625,322,436.625,318,432.625" style="stroke:#000000;stroke-width:1.0;"/><line style="stroke:#000000;stroke-width:1.0;" x1="316" x2="582.5" y1="432.625" y2="432.625"/><text fill="#000000" font-family="Verdana" font-size="13" lengthAdjust="spacing" textLength="74" x="328" y="427.5591">Resultaat N</text><polygon fill="#000000" points="700.5,457.7578,710.5,461.7578,700.5,465.7578,704.5,461.7578" style="stroke:#000000;stroke-width:1.0;"/><line style="stroke:#000000;stroke-width:1.0;" x1="311" x2="706.5" y1="461.7578" y2="461.7578"/><text fill="#000000" font-family="Verdana" font-size="13" lengthAdjust="spacing" textLength="180" x="318" y="456.6919">Verwerkt resultaten per 500</text><polygon fill="#000000" points="322,486.8906,312,490.8906,322,494.8906,318,490.8906" style="stroke:#000000;stroke-width:1.0;"/><line style="stroke:#000000;stroke-width:1.0;" x1="316" x2="711.5" y1="490.8906" y2="490.8906"/><text fill="#000000" font-family="Verdana" font-size="13" lengthAdjust="spacing" textLength="161" x="328" y="485.8247">Gegroepeerde resultaten</text><polygon fill="#000000" points="61,516.0234,51,520.0234,61,524.0234,57,520.0234" style="stroke:#000000;stroke-width:1.0;"/><line style="stroke:#000000;stroke-width:1.0;" x1="55" x2="310" y1="520.0234" y2="520.0234"/><text fill="#000000" font-family="Verdana" font-size="13" lengthAdjust="spacing" textLength="237" x="67" y="514.9575">Geeft gegroepeerde resultaten terug</text><!--SRC=[TP11Ru9048Nlyokct6k4f9ScD2c9zaOQcdWVPKGYtQMpWut_lYEWQ6ttjc- -VVFsFUYEFndRXce7G1lrWWL_THoK1IbWTBb5m4vhFMAqv9A5jEOjBbpP-jffT6AN2p2sOumoyGxZNipY6p4PnEH6p0SnXvAKrXJuj3PqZPAomnNBDyk-TbMF5Ik0DCMC3qALYVWkViC1qnIcv8ylbWQV1uegnUsKcSVCOCJ4jKIDOl2Tc1bKuhiMNyFHRNRYBUAwNsTf3kIGcePnRSaTEq0xWrCMczE7ildqMwz7oV-Z_DV8yi5iDWEpEySRso356CpgNax0RExbVFnZiJ9vx55HfcvRw-ffFWS3pg_Vs3xFBREKV8MUdIuLdqZUAbP_ysXCL_q0]--></g></svg>